<?xml version="1.0" encoding="UTF-8" standalone="no"?>
<!-- Created with Inkscape (http://www.inkscape.org/) -->

<svg
   xmlns:dc="http://purl.org/dc/elements/1.1/"
   xmlns:cc="http://creativecommons.org/ns#"
   xmlns:rdf="http://www.w3.org/1999/02/22-rdf-syntax-ns#"
   xmlns:svg="http://www.w3.org/2000/svg"
   xmlns="http://www.w3.org/2000/svg"
   xmlns:sodipodi="http://sodipodi.sourceforge.net/DTD/sodipodi-0.dtd"
   xmlns:inkscape="http://www.inkscape.org/namespaces/inkscape"
   version="1.1"
   id="svg31341"
   xml:space="preserve"
   width="666.66669"
   height="666.66669"
   viewBox="0 0 666.66669 666.66669"
   sodipodi:docname="duck-low-poly-publicdomainvectors.org.svg"
   inkscape:version="0.92.4 (5da689c313, 2019-01-14)"><metadata
     id="metadata31347"><rdf:RDF><cc:Work
         rdf:about=""><dc:format>image/svg+xml</dc:format><dc:type
           rdf:resource="http://purl.org/dc/dcmitype/StillImage" /><dc:title></dc:title></cc:Work></rdf:RDF></metadata><defs
     id="defs31345"><clipPath
       clipPathUnits="userSpaceOnUse"
       id="clipPath31357"><path
         d="M 0,500 H 500 V 0 H 0 Z"
         id="path31355"
         inkscape:connector-curvature="0" /></clipPath></defs><sodipodi:namedview
     pagecolor="#ffffff"
     bordercolor="#666666"
     borderopacity="1"
     objecttolerance="10"
     gridtolerance="10"
     guidetolerance="10"
     inkscape:pageopacity="0"
     inkscape:pageshadow="2"
     inkscape:window-width="797"
     inkscape:window-height="480"
     id="namedview31343"
     showgrid="false"
     inkscape:zoom="0.35399999"
     inkscape:cx="333.33334"
     inkscape:cy="333.33334"
     inkscape:window-x="0"
     inkscape:window-y="0"
     inkscape:window-maximized="0"
     inkscape:current-layer="g31349" /><g
     id="g31349"
     inkscape:groupmode="layer"
     inkscape:label="duck-low-poly-publicdomainvectors.org"
     transform="matrix(1.3333333,0,0,-1.3333333,0,666.66667)"><g
       id="g31351"><g
         id="g31353"
         clip-path="url(#clipPath31357)"><path
           d="m 421.829,409.727 c 2.339,-0.88 4.44,-1.764 6.102,-2.593 1.454,-0.748 6.541,-1.749 11.268,-2.228 4.724,-0.474 9.327,-1.163 10.174,-1.513 3.595,-1.47 0.809,8.857 -3.997,15.059 -2.894,3.733 -7.475,6.508 -19.833,11.66 l -16.112,-2.699 z"
           style="fill:#af7781;fill-opacity:1;fill-rule:nonzero;stroke:none"
           id="path31359"
           inkscape:connector-curvature="0" /><path
           d="m 403.511,415.241 c 5.639,-1.283 12.675,-3.388 18.318,-5.514 l -12.398,17.686 z"
           style="fill:#b4918e;fill-opacity:1;fill-rule:nonzero;stroke:none"
           id="path31361"
           inkscape:connector-curvature="0" /><path
           d="m 404.468,352.786 c -0.979,8.709 -2.046,15.486 -2.787,16.688 -0.194,0.311 -1.142,3.384 -2.117,6.835 -1.761,6.264 -3.859,12.049 -6.41,17.64 l -17.17,-35.3 z"
           style="fill:#b4918e;fill-opacity:1;fill-rule:nonzero;stroke:none"
           id="path31363"
           inkscape:connector-curvature="0" /><path
           d="m 406.532,290.792 c 0.408,3.826 0.625,7.891 0.684,12.505 l -14.859,-8.265 z"
           style="fill:#aba4aa;fill-opacity:1;fill-rule:nonzero;stroke:none"
           id="path31365"
           inkscape:connector-curvature="0" /><path
           d="m 80.571,52.21 -0.221,0.023 c 0.059,-0.015 0.133,-0.023 0.221,-0.023"
           style="fill:#ae858b;fill-opacity:1;fill-rule:nonzero;stroke:none"
           id="path31367"
           inkscape:connector-curvature="0" /><path
           d="m 382.422,209.904 c 1.534,2.95 2.985,6.102 4.336,9.434 1.111,2.731 2.534,6.216 3.172,7.732 1.376,3.284 5.445,18.373 6.308,23.392 0.334,1.945 2.177,8.25 4.087,14.021 3.336,10.046 5.273,17.561 6.207,26.309 l -14.175,4.24 z"
           style="fill:#a9b9c4;fill-opacity:1;fill-rule:nonzero;stroke:none"
           id="path31369"
           inkscape:connector-curvature="0" /><path
           d="m 436.612,94.53 c 7.593,0 10.786,0.864 11.833,3.219 0.526,1.129 1.817,2.321 2.868,2.654 1.194,0.371 1.072,0.684 -0.931,1.259 L 434.441,94.59 c 0.713,-0.045 1.418,-0.06 2.171,-0.06"
           style="fill:#4873b4;fill-opacity:1;fill-rule:nonzero;stroke:none"
           id="path31371"
           inkscape:connector-curvature="0" /><path
           d="m 442.063,104.806 c -0.889,0.817 -2.094,1.479 -2.702,1.479 -0.606,0 -1.735,1.419 -2.586,3.155 -1.534,3.266 -1.616,2.946 1.415,8.968 0.24,0.471 -1.094,0.581 -3.069,0.257 -2.385,-0.385 -3.958,-0.171 -4.891,0.684 -0.803,0.684 -5.684,3.342 -10.909,5.903 -5.222,2.557 -11.011,5.459 -12.857,6.451 -2.655,1.419 -4.736,1.743 -9.947,1.53 -5.835,-0.24 -6.691,-0.5 -7.486,-2.299 -0.487,-1.121 -1.354,-2.036 -1.919,-2.036 -0.852,0 -5.697,4.011 -11.001,8.976 l -0.318,-12.611 c 5.972,-6.715 7.571,-10.834 4.134,-10.834 -0.718,0 -1.304,-0.847 -1.304,-1.881 0,-1.608 0.385,-1.8 2.642,-1.3 2.26,0.496 2.683,0.287 2.936,-1.458 0.261,-1.761 1.539,-2.346 9.798,-4.483 5.223,-1.356 13.157,-3.566 17.637,-4.92 14.574,-4.402 18.823,-5.55 22.805,-5.797 l 15.941,7.072 c -0.509,0.146 -1.137,0.309 -1.898,0.494 -2.625,0.642 -5.532,1.834 -6.421,2.65"
           style="fill:#5f92c3;fill-opacity:1;fill-rule:nonzero;stroke:none"
           id="path31373"
           inkscape:connector-curvature="0" /><path
           d="m 392.357,295.032 14.859,8.265 c 0.076,6.085 -0.122,13.127 -0.522,21.852 -0.401,8.794 -1.271,19.135 -2.226,27.637 l -28.484,5.863 z"
           style="fill:#b2a9a3;fill-opacity:1;fill-rule:nonzero;stroke:none"
           id="path31375"
           inkscape:connector-curvature="0" /><path
           d="m 425.543,430.112 c -1.954,0.815 -4.102,1.689 -6.469,2.635 -1.714,0.685 -3.237,1.301 -4.606,1.865 l -5.037,-7.199 z"
           style="fill:#aa5e71;fill-opacity:1;fill-rule:nonzero;stroke:none"
           id="path31377"
           inkscape:connector-curvature="0" /><path
           d="m 414.468,434.612 c -8.542,3.526 -10.978,5.048 -14.968,8.71 -3.339,3.057 -6.193,6.734 -7.673,9.858 -1.233,2.602 -3.912,6.123 -7.263,9.809 l 24.867,-35.576 z"
           style="fill:#ad6270;fill-opacity:1;fill-rule:nonzero;stroke:none"
           id="path31379"
           inkscape:connector-curvature="0" /><path
           d="m 340.668,269.305 40.692,-61.384 c 0.358,0.65 0.712,1.311 1.062,1.983 l 9.935,85.128 z"
           style="fill:#b5cccd;fill-opacity:1;fill-rule:nonzero;stroke:none"
           id="path31381"
           inkscape:connector-curvature="0" /><path
           d="m 323.126,404.726 52.858,-46.077 17.17,35.3 c -1.929,4.228 -4.117,8.345 -6.619,12.47 -1.924,3.164 -3.368,5.818 -3.214,5.899 4.915,2.566 9.596,4.172 12.122,4.172 1.776,0 4.668,-0.474 8.068,-1.249 l 5.92,12.172 z"
           style="fill:#c3998f;fill-opacity:1;fill-rule:nonzero;stroke:none"
           id="path31383"
           inkscape:connector-curvature="0" /><path
           d="m 351.619,448.602 c 5.04,1.265 15.484,-6.001 12.662,-8.823 -0.573,-0.573 -3.587,-1.201 -6.702,-1.402 -5.198,-0.329 -5.861,-0.158 -8.136,2.116 -3.868,3.868 -3.09,6.783 2.176,8.109 m 57.812,-21.189 -24.867,35.576 c -6.289,6.92 -14.947,14.427 -20.864,17.545 -2.45,1.29 -4.532,2.366 -6.364,3.265 l -34.21,-79.073 z"
           style="fill:#c18381;fill-opacity:1;fill-rule:nonzero;stroke:none"
           id="path31385"
           inkscape:connector-curvature="0" /><path
           d="m 371.24,142.586 c -2.207,2.216 -4.784,5.755 -5.902,8.074 l -16.735,-1.151 c 1.814,-5.113 3.419,-6.896 6.847,-9.077 2.552,-1.617 5.035,-3.109 5.535,-3.314 2.27,-0.935 11.153,-7.856 13.871,-10.818 0.325,-0.354 0.635,-0.697 0.937,-1.037 l 0.318,12.611 c -1.615,1.512 -3.27,3.109 -4.871,4.712"
           style="fill:#75add1;fill-opacity:1;fill-rule:nonzero;stroke:none"
           id="path31387"
           inkscape:connector-curvature="0" /><path
           d="m 392.357,295.032 -16.373,63.617 -35.316,-89.344 z"
           style="fill:#bdc3b5;fill-opacity:1;fill-rule:nonzero;stroke:none"
           id="path31389"
           inkscape:connector-curvature="0" /><path
           d="m 357.336,483.799 c -8.061,3.952 -11.255,4.437 -19.412,4.361 -8.591,-0.083 -15.873,-1.567 -22.482,-4.623 l 7.684,-78.811 z"
           style="fill:#c6827f;fill-opacity:1;fill-rule:nonzero;stroke:none"
           id="path31391"
           inkscape:connector-curvature="0" /><path
           d="m 375.984,358.649 -76.247,1.872 40.931,-91.216 z"
           style="fill:#c8c7b1;fill-opacity:1;fill-rule:nonzero;stroke:none"
           id="path31393"
           inkscape:connector-curvature="0" /><path
           d="m 365.179,150.999 c -1.36,3.064 -2.672,4.526 -4.899,5.458 -2.839,1.189 -3.155,1.753 -4.694,8.503 l -1.649,7.232 0.312,0.379 -31.824,30.31 -3.471,-51.406 c 3.271,1.561 8.754,4.456 13.446,7.124 11.58,6.591 11.67,6.583 13.816,-1.197 0.913,-3.311 1.667,-5.865 2.387,-7.893 l 16.735,1.151 c -0.056,0.115 -0.111,0.23 -0.159,0.339"
           style="fill:#93c6de;fill-opacity:1;fill-rule:nonzero;stroke:none"
           id="path31395"
           inkscape:connector-curvature="0" /><path
           d="m 354.249,172.571 3.65,4.426 c 2.184,2.642 4.202,5.01 4.493,5.258 1.008,0.863 14.029,17.646 15.791,20.348 0.863,1.327 1.707,2.717 2.531,4.164 l -58.289,-3.886 z"
           style="fill:#97c4de;fill-opacity:1;fill-rule:nonzero;stroke:none"
           id="path31397"
           inkscape:connector-curvature="0" /><path
           d="m 322.425,202.881 58.289,3.886 c 0.217,0.38 0.432,0.765 0.646,1.154 l -40.692,61.384 z"
           style="fill:#afd1e2;fill-opacity:1;fill-rule:nonzero;stroke:none"
           id="path31399"
           inkscape:connector-curvature="0" /><path
           d="m 323.126,404.726 -23.389,-44.205 76.247,-1.872 z"
           style="fill:#ceb39d;fill-opacity:1;fill-rule:nonzero;stroke:none"
           id="path31401"
           inkscape:connector-curvature="0" /><path
           d="m 80.173,52.407 c 0,-0.088 0.063,-0.144 0.177,-0.174 l 0.221,-0.023 c 0.965,-0.004 3.527,0.88 5.933,2.095 1.239,0.65 3.479,2.706 4.971,4.642 4.355,5.574 6.075,7.065 10.505,8.484 L 84.421,67.179 C 83.212,63.835 80.173,53.29 80.173,52.407"
           style="fill:#aca4a7;fill-opacity:1;fill-rule:nonzero;stroke:none"
           id="path31403"
           inkscape:connector-curvature="0" /><path
           d="m 299.737,360.521 -68.061,-32.745 26.663,-73.207 z"
           style="fill:#e0e2c2;fill-opacity:1;fill-rule:nonzero;stroke:none"
           id="path31405"
           inkscape:connector-curvature="0" /><path
           d="m 258.339,254.569 64.086,-51.688 18.243,66.424 z"
           style="fill:#c5e0e0;fill-opacity:1;fill-rule:nonzero;stroke:none"
           id="path31407"
           inkscape:connector-curvature="0" /><path
           d="M 340.668,269.305 299.737,360.521 258.339,254.569 Z"
           style="fill:#d3dfc6;fill-opacity:1;fill-rule:nonzero;stroke:none"
           id="path31409"
           inkscape:connector-curvature="0" /><path
           d="m 284.27,145.142 c 2.852,0.676 7.606,2.004 12.009,3.369 10.111,3.137 10.426,3.172 13.218,1.671 2.753,-1.484 3.047,-1.466 7.729,0.505 0.461,0.195 1.047,0.462 1.728,0.788 l 3.471,51.406 z"
           style="fill:#9ccce2;fill-opacity:1;fill-rule:nonzero;stroke:none"
           id="path31411"
           inkscape:connector-curvature="0" /><path
           d="m 220.216,223.696 40.605,-82.943 c 8.477,1.662 17.596,3.36 21.481,3.975 0.452,0.071 1.129,0.214 1.968,0.414 l 38.155,57.739 z"
           style="fill:#b6deec;fill-opacity:1;fill-rule:nonzero;stroke:none"
           id="path31413"
           inkscape:connector-curvature="0" /><path
           d="m 315.442,483.537 c -1.962,-0.907 -3.864,-1.951 -5.722,-3.14 -9.44,-6.036 -18.664,-17.047 -22.781,-27.183 -1.569,-3.868 -1.876,-6.587 -1.894,-16.82 -0.012,-12.969 1.008,-19.061 5.742,-32.953 l 32.339,1.285 z"
           style="fill:#dc9f90;fill-opacity:1;fill-rule:nonzero;stroke:none"
           id="path31415"
           inkscape:connector-curvature="0" /><path
           d="m 323.126,404.726 -32.339,-1.285 c 0.2,-0.587 0.406,-1.185 0.619,-1.8 1.705,-4.938 3.108,-10.234 3.108,-11.782 0,-4.838 -5.061,-9.927 -17.74,-17.296 l 22.963,-12.042 z"
           style="fill:#dfba9f;fill-opacity:1;fill-rule:nonzero;stroke:none"
           id="path31417"
           inkscape:connector-curvature="0" /><path
           d="m 220.216,223.696 102.209,-20.815 -64.086,51.688 z"
           style="fill:#cde9ef;fill-opacity:1;fill-rule:nonzero;stroke:none"
           id="path31419"
           inkscape:connector-curvature="0" /><path
           d="m 299.737,360.521 -22.963,12.042 c -3.642,-2.117 -7.911,-4.421 -12.871,-6.962 -11.781,-6.032 -22.575,-12.598 -27.011,-16.437 -0.608,-0.521 -1.638,-1.359 -2.296,-1.854 -1.478,-1.122 -3.088,-2.421 -4.78,-3.85 l 1.86,-15.684 z"
           style="fill:#e8cead;fill-opacity:1;fill-rule:nonzero;stroke:none"
           id="path31421"
           inkscape:connector-curvature="0" /><path
           d="m 231.676,327.776 -35.318,-53.559 61.981,-19.648 z"
           style="fill:#ebf0d3;fill-opacity:1;fill-rule:nonzero;stroke:none"
           id="path31423"
           inkscape:connector-curvature="0" /><path
           d="m 160.106,140.666 61.952,-10.06 c 2.88,1.551 4.689,2.532 6.433,3.482 2.437,1.325 5.993,2.343 8.866,2.534 2.642,0.176 8.747,1.134 13.568,2.143 2.896,0.601 6.34,1.292 9.896,1.988 l -40.605,82.943 z"
           style="fill:#bee1ed;fill-opacity:1;fill-rule:nonzero;stroke:none"
           id="path31425"
           inkscape:connector-curvature="0" /><path
           d="m 244.235,100.147 -0.96,0.403 -2.326,-1.976 z"
           style="fill:#8eb1d5;fill-opacity:1;fill-rule:nonzero;stroke:none"
           id="path31427"
           inkscape:connector-curvature="0" /><path
           d="m 222.489,74.174 c 0.283,0.769 1.258,1.372 2.156,1.372 1.35,0 1.577,0.607 1.303,3.475 -0.303,3.146 0.222,4.199 5.468,10.636 0.876,1.078 1.748,2.092 2.599,3.024 L 212.293,74.224 c 7.164,-1.749 9.564,-1.696 10.196,-0.05"
           style="fill:#8eb1d5;fill-opacity:1;fill-rule:nonzero;stroke:none"
           id="path31429"
           inkscape:connector-curvature="0" /><path
           d="m 165.649,103.023 c 1.331,0.656 2.689,1.32 4.032,1.972 11.267,5.471 12.272,5.8 13.34,4.338 1.638,-2.235 1.433,-3.847 -0.426,-3.381 -1.065,0.265 -2.104,-0.53 -3.168,-2.42 -0.864,-1.547 -1.582,-3.227 -1.582,-3.726 0,-1.07 3.655,-4.285 4.976,-4.369 1.95,-0.138 5.78,-4.289 7.947,-8.593 3.483,-6.933 5.578,-8.353 16.568,-11.336 1.866,-0.504 3.507,-0.931 4.957,-1.284 l 21.722,18.457 c 2.639,2.895 5.061,5 6.711,5.786 l 0.223,0.107 2.326,1.976 -2.01,0.845 c -1.908,0.803 -5.677,1.171 -10.483,1.035 -7.36,-0.205 -7.677,-0.128 -16.171,4.172 -5.155,2.607 -8.882,5.083 -9.212,6.104 -0.803,2.539 -1.974,2.154 -7.25,-2.347 -2.62,-2.244 -5.06,-4.074 -5.42,-4.074 -0.992,0 0.18,7.13 1.419,8.627 0.608,0.727 4.814,3.308 9.354,5.74 9.381,5.027 14.853,7.961 18.556,9.954 l -61.952,10.06 z"
           style="fill:#a6c6dd;fill-opacity:1;fill-rule:nonzero;stroke:none"
           id="path31431"
           inkscape:connector-curvature="0" /><path
           d="m 160.106,140.666 60.11,83.03 -67.594,-46.075 z"
           style="fill:#d3ebe7;fill-opacity:1;fill-rule:nonzero;stroke:none"
           id="path31433"
           inkscape:connector-curvature="0" /><path
           d="m 229.816,343.46 c -3.715,-3.136 -7.828,-6.898 -11.828,-10.789 l 13.688,-4.895 z"
           style="fill:#f3d7b3;fill-opacity:1;fill-rule:nonzero;stroke:none"
           id="path31435"
           inkscape:connector-curvature="0" /><path
           d="m 196.358,274.217 23.858,-50.521 38.123,30.873 z"
           style="fill:#e4f3e5;fill-opacity:1;fill-rule:nonzero;stroke:none"
           id="path31437"
           inkscape:connector-curvature="0" /><path
           d="m 84.605,67.672 c -0.054,-0.139 -0.117,-0.306 -0.184,-0.493 l 17.559,0.252 c 0.222,0.071 0.45,0.141 0.685,0.213 l -17.34,2.441 c -0.156,-0.78 -0.394,-1.578 -0.72,-2.413"
           style="fill:#b19e9b;fill-opacity:1;fill-rule:nonzero;stroke:none"
           id="path31439"
           inkscape:connector-curvature="0" /><path
           d="m 231.676,327.776 -13.688,4.895 c -6.15,-5.98 -12.033,-12.258 -15.786,-17.016 -1.918,-2.431 -4.505,-6.034 -7.362,-10.199 l 1.518,-31.239 z"
           style="fill:#f2ecc8;fill-opacity:1;fill-rule:nonzero;stroke:none"
           id="path31441"
           inkscape:connector-curvature="0" /><path
           d="m 196.358,274.217 -25.576,-8.388 c -2.307,-4.803 -4.061,-9.308 -5.962,-15.068 -0.925,-2.804 -2.303,-6.323 -4.054,-10.389 l 59.45,-16.676 z"
           style="fill:#f0f8de;fill-opacity:1;fill-rule:nonzero;stroke:none"
           id="path31443"
           inkscape:connector-curvature="0" /><path
           d="m 220.216,223.696 -59.45,16.676 c -3.957,-9.19 -9.828,-21.19 -16.746,-34.148 -0.5,-0.938 -0.981,-1.836 -1.443,-2.702 l 10.045,-25.901 z"
           style="fill:#e9f5e8;fill-opacity:1;fill-rule:nonzero;stroke:none"
           id="path31445"
           inkscape:connector-curvature="0" /><path
           d="m 104.596,68.271 c 3.538,1.337 8.969,4.349 15.37,8.57 9.798,6.46 16.226,10.298 33.915,20.211 1.594,0.892 6.459,3.356 11.768,5.971 l -5.543,37.643 z"
           style="fill:#aebfc4;fill-opacity:1;fill-rule:nonzero;stroke:none"
           id="path31447"
           inkscape:connector-curvature="0" /><path
           d="m 194.84,305.456 c -6.16,-8.98 -13.572,-20.578 -18.222,-28.687 -2.368,-4.135 -4.235,-7.609 -5.836,-10.94 l 25.576,8.388 z"
           style="fill:#f9f6c6;fill-opacity:1;fill-rule:nonzero;stroke:none"
           id="path31449"
           inkscape:connector-curvature="0" /><path
           d="m 142.577,203.522 c -8.92,-16.694 -10.99,-20.481 -12.424,-22.649 l 22.469,-3.252 z"
           style="fill:#e9f3d8;fill-opacity:1;fill-rule:nonzero;stroke:none"
           id="path31451"
           inkscape:connector-curvature="0" /><path
           d="m 104.675,132.013 -0.696,-63.965 c 0.199,0.068 0.405,0.143 0.617,0.223 l 55.51,72.395 z"
           style="fill:#becfc4;fill-opacity:1;fill-rule:nonzero;stroke:none"
           id="path31453"
           inkscape:connector-curvature="0" /><path
           d="m 152.622,177.621 -22.469,3.252 c -0.131,-0.198 -0.256,-0.384 -0.382,-0.563 -0.914,-1.321 -1.667,-2.676 -1.667,-3.014 0,-0.236 -0.726,-1.681 -1.781,-3.581 l 33.783,-33.049 z"
           style="fill:#d5ead8;fill-opacity:1;fill-rule:nonzero;stroke:none"
           id="path31455"
           inkscape:connector-curvature="0" /><path
           d="m 160.106,140.666 -33.783,33.049 c -0.448,-0.808 -0.956,-1.697 -1.492,-2.612 -1.805,-3.066 -4.267,-8.631 -5.48,-12.359 -2.369,-7.266 -5.148,-10.888 -11.868,-15.448 -0.021,-0.015 -0.042,-0.029 -0.063,-0.043 l -2.745,-11.24 z"
           style="fill:#d0e2ce;fill-opacity:1;fill-rule:nonzero;stroke:none"
           id="path31457"
           inkscape:connector-curvature="0" /><path
           d="m 107.42,143.253 c -2.112,-1.434 -4.017,-2.6 -4.245,-2.6 -0.223,0 -2.347,-1.359 -4.711,-3.017 -0.325,-0.23 -0.716,-0.487 -1.155,-0.762 l 7.366,-4.861 z"
           style="fill:#d9dfc3;fill-opacity:1;fill-rule:nonzero;stroke:none"
           id="path31459"
           inkscape:connector-curvature="0" /><path
           d="m 27.68,80.98 c 0.501,-0.018 1.082,-0.022 1.765,-0.022 2.488,0 11.918,1.898 20.954,4.202 l 16.424,4.232 5.091,-2.71 c 9.203,-4.873 10.811,-6.087 12.256,-9.114 1.28,-2.678 1.654,-4.983 1.155,-7.483 l 17.34,-2.441 c 0.21,0.063 0.424,0.127 0.647,0.191 0.212,0.062 0.435,0.134 0.667,0.213 l 0.696,63.965 z"
           style="fill:#b8b9b0;fill-opacity:1;fill-rule:nonzero;stroke:none"
           id="path31461"
           inkscape:connector-curvature="0" /><path
           d="m 89.474,132.585 c -1.198,-0.595 -2.395,-1.165 -3.522,-1.674 -10.43,-4.697 -27.499,-13.533 -29.362,-15.204 -0.787,-0.706 -1.711,-1.278 -2.044,-1.278 -1.522,0 -24.827,-16.27 -29.162,-20.366 -3.394,-3.197 -3.762,-5.231 -1.782,-9.955 1.05,-2.515 1.414,-3.028 4.078,-3.128 l 76.995,51.033 z"
           style="fill:#c2beab;fill-opacity:1;fill-rule:nonzero;stroke:none"
           id="path31463"
           inkscape:connector-curvature="0" /><path
           d="m 97.309,136.874 c -1.949,-1.221 -4.895,-2.829 -7.835,-4.289 l 15.201,-0.572 z"
           style="fill:#d3ceb3;fill-opacity:1;fill-rule:nonzero;stroke:none"
           id="path31465"
           inkscape:connector-curvature="0" /></g></g></g></svg>