<svg id="SvgjsSvg1001" width="288" height="288" xmlns="http://www.w3.org/2000/svg" version="1.1" xmlns:xlink="http://www.w3.org/1999/xlink" xmlns:svgjs="http://svgjs.com/svgjs"><defs id="SvgjsDefs1002"></defs><g id="SvgjsG1008" transform="matrix(1,0,0,1,0,0)"><svg xmlns="http://www.w3.org/2000/svg" width="288" height="288" enable-background="new 0 0 578 462" viewBox="0 0 598 318"><path fill="#6666ff" d="m 282.3906975034085,288.8341315604143 -261.27070449063421,-0.3341315604143 -1.09727740833345,-6.5 -1.65905260211104,-9.6847828902752 -0.56177519377758,-3.1847828902753 4.3490560957239,-1.087267138263 5.82434980121597,-1.9086192752192 1.47529370549207,-0.8213521369563 3.88615444083068,-9.6542475117555 3.88615444083068,-9.6542475117554 8.48294722841213,-4.7523503227501 8.48294722841212,-4.75235032275 -0.40616992949816,-30.7132725525564 -0.40616992949817,-30.7132725525563 -1.78243201387332,-1.9695652056404 -1.78243201387331,-1.9695652056404 0.6736618344557,-3.0671622418033 0.6736618344557,-3.0671622418032 4.17054473418092,-0.022767524686 65.67054473418089,-1.4772324753143 64.75,-1.4772324753143 3.25,-0.022767524686 0.01158985403,-4.75 0.01158985403,-4.75 4.4673865724013,-14.8440404641471 4.4673865724014,-14.8440404641472 3.2075634252938,-3.6559595358529 14.621940778271,-16.3030333601957 11.414377352977,-12.64707382434301 23.1490827952975,-10.59977421433085 23.1490827952973,-10.59977421433085 20.334942903379,3.44294828581785 20.3349429033788,3.44294828581785 3.1650570966212,2.42717032816341 20.665057096621,16.63128419225211 17.5,14.20411386408868 5.4487629483399,-0.6094807210723 5.6448247722036,-0.8273844393961 0.9267959478952,-29.41733841318223 0.7307341240315,-29.19943469485828 -2.6255588962352,-0.65897333501306 -2.625558896235,-0.658973335013 0,-3.89159197012867 0,-3.89159197012862 1.25,0.008204832631 10.2001704323927,1.03350376573178 9.1257723263097,1.24179516736916 0.8373097753107,2.37226616288212 0.6617078813937,2.15576992861389 -4.0374802077034,0.68212790232906 -4.0374802077034,0.68212790232905 0,29.91210216905702 0,29.91210216905708 20.5,0 20.5,0 0,-41.93872710043907 0,-41.93872710043898 -4.5,-0.67481667462328 -4.501367084856,-0.81127289956101 -1.4851780790451,-8.56794481256599 -1.0996202576551,-8.81567932414544 3.1038669428141,3.181488587628223 2.7196762062802,3.565679324145497 4.1657036098314,-6e-14 4.1657036098313,0 1.7901364289415,-3.030459432514876 1.7901364289414,-3.030459432514874 4.8094481446387,3.530459432514817 5.9751310243423,3.530459432514933 4.0862363070957,-1.51027687309102 2.920553427392,-1.510276873091012 1.6469476576581,2.513559833765893 1.646947657658,2.5135598337659 5.8168286087692,-3.19781800362597 5.8168286087692,-3.197818003625969 0.9983300980925,-2.055464957048911 0.9983300980925,-2.055464957048855 0.067680281204,9.222065109948683 0.067680281204,9.22206510994875 -5.75,1.63864821260887 -6.4020584842179,2.27793489005125 -0.6520584842179,0.63928667744244 -0.7214230820986,40.75 -0.7214230820987,40.75000000000006 13.0742604634237,0 13.0742604634237,0 5.0492211028927,1.0828640868732 5.0492211028929,1.0828640868732 0,1.2921359131268 -0.6346766020354,4.465518923304 -0.6346766020355,3.1733830101773 -4.1153233979645,2.0745366827539 -4.3914468787729,2.3110738039771 1.25,16.893504750794 1.5261234808082,18.1405431858457 0,1.4835755562748 30.6392909524636,0 30.6392909524633,0 -0.6305988572387,5.25 -0.6392909524634,7.1164969934442 -0.00869209523,1.8664969934442 -6.4999999999998,-0.6960909563432 -6.5,-0.696090956343 0,16.9134059828904 0,16.9134059828903 31.9627398102494,0.962261123569 31.9627398102492,0.9622611235691 0.582287427579,0.5822874276138 0.582287427579,0.5822874276138 -1.149676617025,4.5657798426667 -1.1496766170245,4.5657798426666 -7.3200301468944,5.733764551382 -7.3200301468942,5.733764551382 -5.225864671389,21.0720950347769 -5.2258646713888,21.0720950347772 -3.3415442175782,6.7093255583137 -3.3415442175783,6.7093255583136 -4.1772105879209,1.1248060021006 -4.1772105879207,1.1248060021007 z m -215.05087526066759,-23.7629950268051 2.83982224274088,-1.7874075222007 -0.18755873880332,-0.8918645057043 -8.33982224274089,-6.6452026961785 -8.15226350393756,-5.7533381904743 -0.63168521157401,2.7533381904743 -0.75,4.9121418337834 -0.11831478842599,2.158803643309 6.25,3.5204683845959 6.25,3.520468384596 z m 412.31385424509289,-57.0711365336092 5.3463235121662,0 0,-4.3429984167938 -0.6536764878339,-16.5 -0.6536764878337,-12.1570015832062 -5.3463235121663,0 -5.3463235121661,0 0,4.3429984167938 0.6536764878338,16.5 0.6536764878337,12.1570015832062 z m 22.6935349423642,0 4.652788569802,0 0,-16.9205447341809 0,-16.9205447341809 -3.1249199391315,-0.6863475528066 -3.1249199391316,-0.6863475528067 -0.8597672863513,1.3568922869876 -0.8597672863515,1.3568922869875 -0.019860384993,5 -0.6681013443191,16.25 -0.6482409593256,11.25 z m -270.3441969768929,-51 17.0030144533053,0 -7.2530144533053,-6.8224407479417 -11.2301744235635,-10.4022292674907 -3.9771599702584,-3.5797885195488 -5.7643991707057,9.6522292674906 -5.7728400297417,10.4022292674906 -0.00844085904,0.75 z m 101.4745157024848,-1 15.4775301557899,0 -5.60994656518,-8.75 -5.7866059479526,-8.9757424588293 -9.8675835906099,7.7709935701625 -9.6909242078373,7.9967360289918 0,0.9790064298375 0,0.9790064298375 z m -57.1032142342943,-10.0074183491752 0.8743159214958,-0.8412134938163 -2.1718098352619,-16.3256840785042 -2.6804362941622,-18.9694410058913 -0.5086264589002,-2.6437569273869 -12.4438796273336,4.1192743701184 -12.4438796273337,4.7666025628119 5.5460351080589,7.5244825572685 14.2499999999999,15.0440519368956 8.7039648919411,8.1668975723205 z m 23.6783284070526,1.0074183491752 3.3242150059448,-2.25 11.5269107767279,-12.695519591265 8.8173769641806,-10.6019516177709 -11.0183092622292,-6.4239848885742 -11.2852162119945,-5.7794988369012 -1.923140425668,16.8137376230128 -1.4350864005009,16.3256835978456 0.5787106423702,2.3057668568265 0.57871064237,2.3057668568264 z m 155.583279653337,-9 7.3640760181149,0 -0.00869209523,-1.75 -0.639290952463,-7 -0.6305988572379,-5.25 -7.360709047537,0 -7.360709047537,0 0,2.3604287345125 0.6359239818852,7 0.6359239818852,4.6395712654875 z" class="color00a1e7 svgShape"></path></svg></g></svg>