<svg id="SvgjsSvg1001" width="288" height="288" xmlns="http://www.w3.org/2000/svg" version="1.1" xmlns:xlink="http://www.w3.org/1999/xlink" xmlns:svgjs="http://svgjs.com/svgjs"><defs id="SvgjsDefs1002"></defs><g id="SvgjsG1008" transform="matrix(1,0,0,1,0,0)"><svg xmlns="http://www.w3.org/2000/svg" xmlns:xlink="http://www.w3.org/1999/xlink" version="1.0" viewBox="0 0 522.71 408.96" width="288" height="288"><defs><linearGradient id="a"><stop offset="0" stop-color="#c8bba2" class="stopColorc8c8a2 svgShape"></stop><stop offset=".5" stop-color="#d8d8be" class="stopColord8d3be svgShape"></stop><stop offset="1" stop-color="#c8b48b" class="stopColorc8ae8b svgShape"></stop></linearGradient><linearGradient id="h" x1="230.26" x2="271.06" y1="342.92" y2="235.18" gradientTransform="translate(52.739 65.076) scale(.82733)" gradientUnits="userSpaceOnUse"><stop offset="0" stop-color="#e6c073" class="stopColord9c09b svgShape"></stop><stop offset="1" stop-color="#fffeb8" stop-opacity=".556" class="stopColorf8ecd1 svgShape"></stop></linearGradient><linearGradient id="i" x1="230.26" x2="271.06" y1="342.92" y2="235.18" gradientTransform="matrix(.6937 0 0 .5153 90.156 170.71)" gradientUnits="userSpaceOnUse"><stop offset="0" stop-color="#4a0000" class="stopColor4a2600 svgShape"></stop><stop offset="1" stop-color="#670000" class="stopColor673100 svgShape"></stop></linearGradient><linearGradient id="j" x1="266.85" x2="189.25" y1="330.36" y2="237.22" gradientTransform="matrix(-.6937 0 .34846 .57012 422.94 151.7)" gradientUnits="userSpaceOnUse"><stop offset="0" stop-color="#a03232" class="stopColor985f36 svgShape"></stop><stop offset="1" stop-color="#670000" class="stopColor673100 svgShape"></stop></linearGradient><linearGradient id="c" x1="157.41" x2="477.9" y1="850.19" y2="788.82" gradientUnits="userSpaceOnUse"><stop offset="0" stop-color="#f3f2c4" class="stopColorf3d6c4 svgShape"></stop><stop offset="1" stop-color="#c86f5e" class="stopColorc78e6f svgShape"></stop></linearGradient><filter id="g"><feGaussianBlur stdDeviation="6.667"></feGaussianBlur></filter><filter id="e"><feGaussianBlur stdDeviation="2.88"></feGaussianBlur></filter><filter id="b" width="1.351" height="2.495" x="-.175" y="-.747"><feGaussianBlur stdDeviation="45.867"></feGaussianBlur></filter><radialGradient id="f" cx="245.71" cy="400.65" r="240" fx="291.43" fy="224.85" gradientTransform="matrix(.82733 0 0 .61853 52.739 153.7)" gradientUnits="userSpaceOnUse" spreadMethod="reflect" xlink:href="#a"></radialGradient><radialGradient id="d" cx="106.71" cy="309.01" r="71.787" gradientTransform="matrix(.80244 .23073 -.39355 1.444 172.24 -149.54)" gradientUnits="userSpaceOnUse" xlink:href="#a"></radialGradient></defs><g transform="translate(-44.086 -201.15)" fill="#000000" class="color000 svgShape"><path fill="url(#c)" d="m655.24 788.82a261.74 61.373 0 1 1 -523.47 0 261.74 61.373 0 1 1 523.47 0z" filter="url(#b)" transform="matrix(.80736 0 0 .5475 -7.352 109.33)"></path><path fill="url(#d)" fill-rule="evenodd" d="m204.49 267.41c-10.8-41.42-44.51-30.32-75.81-27.39-47.87 1.74-60.923 132.85 10.68 186.63-26.21-147.7-8.45-221.87 29.88-148.17 15.04 13.66 28.69-5.37 35.25-11.07z"></path><path fill="none" stroke="#ffffff" stroke-width="3.8" d="m150.44 242.37c-68.755-80.49-143.7 52.99-41.49 172.13" filter="url(#e)" transform="matrix(.83863 0 0 .86137 45.927 59.34)" class="colorStrokefff svgStroke"></path><path fill="url(#f)" d="m513.68 348.56c0 105.69-88.95 201.4-198.56 201.4-109.6 0-198.56-95.71-198.56-201.4 0-75.91 86.46-95.5 198.56-95.5s198.56 15.45 198.56 95.5z"></path><path fill="#f9f9f9" d="m531.57 287.39c0 37.85-94.72 75.11-211.43 75.11s-211.43-37.26-211.43-75.11 94.72-62.03 211.43-62.03 211.43 24.18 211.43 62.03z" filter="url(#g)" transform="translate(52.739 70.04) scale(.82733)" class="colorf9f9f9 svgShape"></path><path fill="url(#h)" stroke="#fefefc" stroke-width="1.489" d="m482.95 307.43c0 28.71-75.19 56.97-167.83 56.97s-167.83-28.26-167.83-56.97 75.19-47.04 167.83-47.04 167.83 18.33 167.83 47.04z" class="colorStrokefefcfc svgStroke"></path><path fill="url(#i)" d="m464.94 327.06c-11.58 20.2-74.62 33.39-152.3 33.39s-133.28-14.74-146.51-31.85c-12.03-39.2 308.86-37.64 298.81-1.54z"></path><path fill="url(#j)" d="m291.44 305.21c-40.23 3.81-84.54 38.79-12.29 48.28 79.59 10.45 199.46-10.77 176.54-27.96-27.17-22.2-136.91-26.81-164.25-20.32z" opacity=".91"></path></g></svg></g></svg>