<svg id="SvgjsSvg1001" width="288" height="288" xmlns="http://www.w3.org/2000/svg" version="1.1" xmlns:xlink="http://www.w3.org/1999/xlink" xmlns:svgjs="http://svgjs.com/svgjs"><defs id="SvgjsDefs1002"></defs><g id="SvgjsG1008" transform="matrix(1,0,0,1,0,0)"><svg xmlns="http://www.w3.org/2000/svg" version="1.0" viewBox="0 0 1052.4 700" width="288" height="288"><defs><linearGradient id="a" x1="613.51" x2="609.77" y1="-12.978" y2="580.42" gradientUnits="userSpaceOnUse"><stop offset="0" stop-color="#87203c" class="stopColor204a87 svgShape"></stop><stop offset="1" stop-color="#51222f" class="stopColor223551 svgShape"></stop></linearGradient><linearGradient id="b" x1="-165.97" x2="1188.8" y1="713.12" y2="713.12" gradientUnits="userSpaceOnUse"><stop offset="0" stop-color="#650f26" class="stopColor0f4265 svgShape"></stop><stop offset="1" stop-color="#9b173a" class="stopColor17659b svgShape"></stop></linearGradient><linearGradient id="d" x1="251.74" x2="282.75" y1="127.57" y2="783.6" gradientTransform="translate(107.89 168.78) scale(.73668)" gradientUnits="userSpaceOnUse"><stop offset="0" stop-color="#d7d7cf" class="stopColord3d7cf svgShape"></stop><stop offset="1" stop-color="#e0c45c" class="stopColor99cb67 svgShape"></stop></linearGradient><linearGradient id="e" x1="511.43" x2="511.43" y1="625.02" y2="915.47" gradientUnits="userSpaceOnUse"><stop offset="0" stop-color="#640f26" class="stopColor0f3e64 svgShape"></stop><stop offset="1" stop-color="#7d112e" class="stopColor117d74 svgShape"></stop></linearGradient><linearGradient id="g" x1="357.39" x2="357.39" y1="-206.83" y2="296.63" gradientUnits="userSpaceOnUse"><stop offset="0" stop-color="#eeeeec" class="stopColoreeeeec svgShape"></stop><stop offset="1" stop-color="#eeeeec" stop-opacity="0" class="stopColoreeeeec svgShape"></stop></linearGradient><linearGradient id="h" x1="59.826" x2="601.31" y1="482.46" y2="-100.37" gradientUnits="userSpaceOnUse"><stop offset="0" stop-color="#4e1323" class="stopColor304e13 svgShape"></stop><stop offset="1" stop-color="#6f0421" class="stopColor04506f svgShape"></stop></linearGradient><filter id="c" width="1.113" height="2.341" x="-.057" y="-.67"><feGaussianBlur stdDeviation="36.156"></feGaussianBlur></filter><filter id="i" width="1.202" height="1.158" x="-.101" y="-.079"><feGaussianBlur stdDeviation="13.468"></feGaussianBlur></filter><filter id="f"><feGaussianBlur stdDeviation="13.272"></feGaussianBlur></filter></defs><g transform="translate(261.82 101.91) scale(.53745)" fill="#cb3b3b" class="color000 svgShape"><path fill="#640f26" stroke="#85203b" stroke-linejoin="round" stroke-width=".5" d="m294.69 556c203.66-12.32 436.06-122.47 893.91 80.41l-11.5 273.47c0 6.55-5.2 11.83-11.8 11.83h-1307.8c-6.51 0-11.79-5.28-11.79-11.83v-319.19c-88.53-155.45 363.46-167.5 448.98-34.69z" color="#000" class="color0f3e64 svgShape colorStroke2e3436 svgStroke"></path><rect width="1216.9" height="738.62" x="-105.82" y="-51.323" fill="url(#a)" stroke="#e2bd34" stroke-linejoin="round" stroke-width=".5" color="#000" ry="11.838" class="colorStroke8ae234 svgStroke"></rect><path fill="url(#b)" fill-rule="evenodd" stroke="#e2bd34" stroke-linejoin="round" stroke-width=".5" d="m294.69 576c203.66-12.32 436.06-122.47 893.91 80.41l-11.5 273.47c0 6.55-5.2 11.83-11.8 11.83h-1307.8c-6.51 0-11.79-5.28-11.79-11.83v-319.19c-88.53-155.45 363.46-167.5 448.98-34.69z" color="#000" class="colorStroke8ae234 svgStroke"></path><path fill="#8a8985" stroke="#edbb00" stroke-linejoin="round" stroke-width=".5" d="m1269.8 957.88a766.62 64.469 0 1 1 -1533.3 0 766.62 64.469 0 1 1 1533.3 0z" color="#000" filter="url(#c)" class="color888a85 svgShape colorStrokeedd400 svgStroke"></path><path fill="url(#d)" stroke="#edbb00" stroke-linejoin="round" stroke-width=".368" d="m406.63 255.43c-142.59 299.15-55.48 433-77.03 476.16 0 4.83-1.09-90.78-5.92-90.78h-16.86c-4.83 0-8.72-3.89-8.72-8.72-10.6-142.86 43.04-116.37-101.34-469.01 102.19 224.25 155.19 211.58 209.87 92.35z" color="#000" class="colorStrokeedd400 svgStroke"></path><path fill="url(#e)" stroke="#e2bd34" stroke-linejoin="round" stroke-width=".5" d="m294.69 596c203.66-12.32 436.06-122.47 893.91 80.41l-11.5 273.47c0 6.55-5.2 11.83-11.8 11.83h-1307.8c-6.51 0-11.79-5.28-11.79-11.83v-319.19c-88.53-155.45 363.46-167.5 448.98-34.69z" color="#000" class="colorStroke8ae234 svgStroke"></path><path fill="#a43452" stroke="#edbb00" stroke-linejoin="round" stroke-width=".5" d="m264.56 159.8c-1.53 2.65-92.11-20.15-94.91-18.91-2.79 1.25-46.45 83.82-49.45 83.19-2.99-0.64-9.29-93.83-11.34-96.11-2.05-2.27-94.076-18.28-94.396-21.33-0.32-3.04 86.366-37.832 87.896-40.483 1.53-2.652-11.683-95.118-8.886-96.364 2.797-1.245 62.676 70.447 65.666 71.084 3 0.636 86.85-40.505 88.9-38.229 2.05 2.2749-47.63 81.373-47.31 84.418s65.36 70.084 63.83 72.734z" color="#000" transform="translate(-34.603 52.973) scale(.30755)" class="color3465a4 svgShape colorStrokeedd400 svgStroke"></path><path fill="url(#g)" stroke="#edbb00" stroke-linejoin="round" stroke-width=".087" d="m389.62-115.69c-16.91 0-32.4 6.14-44.37 16.284-2.88-0.544-5.84-0.844-8.87-0.844-22.45 0-41.27 15.54-46.32 36.438-6.94-2.709-14.48-4.219-22.37-4.219-21.62 0-40.65 11.148-51.66 28-5.34-2.653-11.35-4.157-17.72-4.157-17.02 0-31.56 10.648-37.31 25.657-2-0.299-4.04-0.438-6.12-0.438-22.83 0-41.35 18.522-41.35 41.344 0 12.925 5.92 24.479 15.22 32.063-8.54 8.721-13.81 20.65-13.81 33.812 0 14.85 6.7 28.16 17.25 37.03-6.45 8.89-10.25 19.81-10.25 31.63 0 13.26 4.8 25.41 12.75 34.81-12.21 12.29-19.75 29.19-19.75 47.87 0 29.4 18.68 54.43 44.81 63.91 7.21 3.51 15.29 5.47 23.84 5.47 10.38 0 20.08-2.88 28.35-7.91 6.59-3.12 12.62-7.3 17.84-12.28 0.67 0.58 1.38 1.13 2.1 1.69 8.38 12.82 22.86 21.31 39.31 21.31 4.48 0 8.82-0.63 12.93-1.81 8.14 1.17 16.71 1.81 25.6 1.81 12.96 0 25.3-1.34 36.5-3.75 10.82 14.99 28.42 24.78 48.31 24.78 10.88 0 21.07-2.93 29.85-8.03 8.03 6.75 18.4 10.81 29.71 10.81 25.53 0 46.25-20.72 46.25-46.25 0-4.37-0.64-8.58-1.78-12.59 52.14-0.55 94.28-43.05 94.28-95.31 0-13.35-2.75-26.06-7.72-37.6 9.99-10.44 16.13-24.6 16.13-40.18 0-18.176-8.37-34.398-21.44-45.066 8.89-8.658 14.44-20.744 14.44-34.125 0-26.304-21.35-47.657-47.66-47.657-1.58 0-3.14 0.1-4.68 0.25-3.31-23.873-23.79-42.281-48.57-42.281-13.77 0-26.24 5.687-35.15 14.844-1.77-36.341-31.79-65.315-68.57-65.315zm-83.53 239.16c-0.18 1.48-0.31 2.99-0.4 4.5-0.77-0.79-1.59-1.56-2.47-2.31 0.98-0.69 1.95-1.43 2.87-2.19z" color="#000" filter="url(#f)" class="colorStrokeedd400 svgStroke"></path><path fill="url(#h)" stroke="#edbb00" stroke-linejoin="round" stroke-width=".087" d="m389.62-115.69c-16.91 0-32.4 6.14-44.37 16.284-2.88-0.544-5.84-0.844-8.87-0.844-22.45 0-41.27 15.54-46.32 36.438-6.94-2.709-14.48-4.219-22.37-4.219-21.62 0-40.65 11.148-51.66 28-5.34-2.653-11.35-4.157-17.72-4.157-17.02 0-31.56 10.648-37.31 25.657-2-0.299-4.04-0.438-6.12-0.438-22.83 0-41.35 18.522-41.35 41.344 0 12.925 5.92 24.479 15.22 32.063-8.54 8.721-13.81 20.65-13.81 33.812 0 14.85 6.7 28.16 17.25 37.03-6.45 8.89-10.25 19.81-10.25 31.63 0 13.26 4.8 25.41 12.75 34.81-12.21 12.29-19.75 29.19-19.75 47.87 0 29.4 18.68 54.43 44.81 63.91 7.21 3.51 15.29 5.47 23.84 5.47 10.38 0 20.08-2.88 28.35-7.91 6.59-3.12 12.62-7.3 17.84-12.28 0.67 0.58 1.38 1.13 2.1 1.69 8.38 12.82 22.86 21.31 39.31 21.31 4.48 0 8.82-0.63 12.93-1.81 8.14 1.17 16.71 1.81 25.6 1.81 12.96 0 25.3-1.34 36.5-3.75 10.82 14.99 28.42 24.78 48.31 24.78 10.88 0 21.07-2.93 29.85-8.03 8.03 6.75 18.4 10.81 29.71 10.81 25.53 0 46.25-20.72 46.25-46.25 0-4.37-0.64-8.58-1.78-12.59 52.14-0.55 94.28-43.05 94.28-95.31 0-13.35-2.75-26.06-7.72-37.6 9.99-10.44 16.13-24.6 16.13-40.18 0-18.176-8.37-34.398-21.44-45.066 8.89-8.658 14.44-20.744 14.44-34.125 0-26.304-21.35-47.657-47.66-47.657-1.58 0-3.14 0.1-4.68 0.25-3.31-23.873-23.79-42.281-48.57-42.281-13.77 0-26.24 5.687-35.15 14.844-1.77-36.341-31.79-65.315-68.57-65.315zm-83.53 239.16c-0.18 1.48-0.31 2.99-0.4 4.5-0.77-0.79-1.59-1.56-2.47-2.31 0.98-0.69 1.95-1.43 2.87-2.19z" color="#000" class="colorStrokeedd400 svgStroke"></path><path fill="#a43452" stroke="#edbb00" stroke-linejoin="round" stroke-width=".5" d="m264.56 159.8c-1.53 2.65-92.11-20.15-94.91-18.91-2.79 1.25-46.45 83.82-49.45 83.19-2.99-0.64-9.29-93.83-11.34-96.11-2.05-2.27-94.076-18.28-94.396-21.33-0.32-3.04 86.366-37.832 87.896-40.483 1.53-2.652-11.683-95.118-8.886-96.364 2.797-1.245 62.676 70.447 65.666 71.084 3 0.636 86.85-40.505 88.9-38.229 2.05 2.2749-47.63 81.373-47.31 84.418s65.36 70.084 63.83 72.734z" color="#000" transform="rotate(47.523 180.895 1246.62) scale(.17465)" class="color3465a4 svgShape colorStrokeedd400 svgStroke"></path><path fill="#a43452" stroke="#edbb00" stroke-linejoin="round" stroke-width=".5" d="m264.56 159.8c-1.53 2.65-92.11-20.15-94.91-18.91-2.79 1.25-46.45 83.82-49.45 83.19-2.99-0.64-9.29-93.83-11.34-96.11-2.05-2.27-94.076-18.28-94.396-21.33-0.32-3.04 86.366-37.832 87.896-40.483 1.53-2.652-11.683-95.118-8.886-96.364 2.797-1.245 62.676 70.447 65.666 71.084 3 0.636 86.85-40.505 88.9-38.229 2.05 2.2749-47.63 81.373-47.31 84.418s65.36 70.084 63.83 72.734z" color="#000" transform="rotate(47.523 -151.506 830.533) scale(.17465)" class="color3465a4 svgShape colorStrokeedd400 svgStroke"></path><path fill="#a43452" stroke="#edbb00" stroke-linejoin="round" stroke-width=".5" d="m264.56 159.8c-1.53 2.65-92.11-20.15-94.91-18.91-2.79 1.25-46.45 83.82-49.45 83.19-2.99-0.64-9.29-93.83-11.34-96.11-2.05-2.27-94.076-18.28-94.396-21.33-0.32-3.04 86.366-37.832 87.896-40.483 1.53-2.652-11.683-95.118-8.886-96.364 2.797-1.245 62.676 70.447 65.666 71.084 3 0.636 86.85-40.505 88.9-38.229 2.05 2.2749-47.63 81.373-47.31 84.418s65.36 70.084 63.83 72.734z" color="#000" transform="matrix(.21498 .23479 -.23479 .21498 820.99 81.74)" class="color3465a4 svgShape colorStrokeedd400 svgStroke"></path><path fill="#a43452" stroke="#edbb00" stroke-linejoin="round" stroke-width=".5" d="m264.56 159.8c-1.53 2.65-92.11-20.15-94.91-18.91-2.79 1.25-46.45 83.82-49.45 83.19-2.99-0.64-9.29-93.83-11.34-96.11-2.05-2.27-94.076-18.28-94.396-21.33-0.32-3.04 86.366-37.832 87.896-40.483 1.53-2.652-11.683-95.118-8.886-96.364 2.797-1.245 62.676 70.447 65.666 71.084 3 0.636 86.85-40.505 88.9-38.229 2.05 2.2749-47.63 81.373-47.31 84.418s65.36 70.084 63.83 72.734z" color="#000" transform="rotate(47.523 -284.743 276.934) scale(.11531)" class="color3465a4 svgShape colorStrokeedd400 svgStroke"></path><path fill="#cfbb72" stroke="#fff98c" stroke-linejoin="round" stroke-width=".378" d="m921.98-136.37c-20.35-7.41-41.12-11.34-61.67-12.15 2.51 1.73 4.96 3.51 7.37 5.35 2.66 2.02 5.27 4.1 7.82 6.24 2.54 2.14 5.03 4.36 7.46 6.62 2.42 2.25 4.78 4.57 7.08 6.93 2.31 2.36 4.56 4.77 6.73 7.23 2.18 2.47 4.29 4.98 6.34 7.54 2.06 2.56 4.04 5.18 5.96 7.84 1.92 2.646 3.78 5.327 5.57 8.063 1.79 2.735 3.52 5.51 5.17 8.325 1.66 2.816 3.25 5.665 4.77 8.555 1.52 2.889 2.97 5.824 4.35 8.782 1.38 2.957 2.67 5.951 3.91 8.972 1.23 3.02 2.39 6.069 3.49 9.147 1.09 3.079 2.13 6.193 3.07 9.324 0.95 3.13 1.8 6.275 2.6 9.452 0.79 3.177 1.53 6.38 2.17 9.598 0.64 3.217 1.19 6.443 1.68 9.696 0.49 3.2534 0.9 6.5286 1.23 9.8118s0.59 6.5804 0.76 9.8882c0.17 3.308 0.24 6.63 0.25 9.957s-0.06 6.648-0.21 9.989c-0.16 3.34-0.42 6.7-0.74 10.049-0.33 3.348-0.73 6.7-1.22 10.051-0.5 3.351-1.07 6.689-1.74 10.037s-1.45 6.697-2.3 10.036c-0.84 3.34-1.76 6.683-2.78 10.009-1.03 3.325-2.15 6.649-3.35 9.955-1.21 3.307-2.48 6.55-3.83 9.755-1.35 3.208-2.8 6.358-4.3 9.458s-3.05 6.17-4.69 9.16c-1.64 3-3.35 5.92-5.12 8.81-1.78 2.89-3.63 5.71-5.53 8.48-1.9 2.78-3.87 5.51-5.9 8.18-2.02 2.66-4.11 5.24-6.25 7.78-2.15 2.55-4.34 5.04-6.6 7.47-2.25 2.42-4.57 4.79-6.93 7.09s-4.79 4.54-7.25 6.72c-2.47 2.18-4.96 4.3-7.52 6.35s-5.18 4.03-7.84 5.95c-2.65 1.93-5.33 3.78-8.06 5.57-2.74 1.79-5.54 3.51-8.35 5.17-2.82 1.66-5.67 3.24-8.56 4.76-2.88 1.52-5.8 2.98-8.75 4.36-2.96 1.38-5.96 2.7-8.99 3.93-3.02 1.24-6.06 2.4-9.14 3.49s-6.19 2.11-9.32 3.05c-3.13 0.95-6.28 1.83-9.46 2.63-3.18 0.79-6.37 1.5-9.59 2.14s-6.45 1.22-9.7 1.7c-3.26 0.49-6.52 0.89-9.81 1.22-3.28 0.33-6.58 0.58-9.88 0.75-3.31 0.17-6.64 0.27-9.97 0.27-2.8 0.01-5.62-0.09-8.43-0.2 14.08 9.76 29.6 17.88 46.45 24.01 105.81 38.52 222.97-16.08 261.47-121.88 38.5-105.81-16.1-222.95-121.92-261.47z" color="#000" filter="url(#i)" class="color729fcf svgShape colorStroked3d7cf svgStroke"></path><path fill="#eeeeec" stroke="#fff98c" stroke-linejoin="round" stroke-width=".378" d="m921.98-136.37c-20.35-7.41-41.12-11.34-61.67-12.15 2.51 1.73 4.96 3.51 7.37 5.35 2.66 2.02 5.27 4.1 7.82 6.24 2.54 2.14 5.03 4.36 7.46 6.62 2.42 2.25 4.78 4.57 7.08 6.93 2.31 2.36 4.56 4.77 6.73 7.23 2.18 2.47 4.29 4.98 6.34 7.54 2.06 2.56 4.04 5.18 5.96 7.84 1.92 2.646 3.78 5.327 5.57 8.063 1.79 2.735 3.52 5.51 5.17 8.325 1.66 2.816 3.25 5.665 4.77 8.555 1.52 2.889 2.97 5.824 4.35 8.782 1.38 2.957 2.67 5.951 3.91 8.972 1.23 3.02 2.39 6.069 3.49 9.147 1.09 3.079 2.13 6.193 3.07 9.324 0.95 3.13 1.8 6.275 2.6 9.452 0.79 3.177 1.53 6.38 2.17 9.598 0.64 3.217 1.19 6.443 1.68 9.696 0.49 3.2534 0.9 6.5286 1.23 9.8118s0.59 6.5804 0.76 9.8882c0.17 3.308 0.24 6.63 0.25 9.957s-0.06 6.648-0.21 9.989c-0.16 3.34-0.42 6.7-0.74 10.049-0.33 3.348-0.73 6.7-1.22 10.051-0.5 3.351-1.07 6.689-1.74 10.037s-1.45 6.697-2.3 10.036c-0.84 3.34-1.76 6.683-2.78 10.009-1.03 3.325-2.15 6.649-3.35 9.955-1.21 3.307-2.48 6.55-3.83 9.755-1.35 3.208-2.8 6.358-4.3 9.458s-3.05 6.17-4.69 9.16c-1.64 3-3.35 5.92-5.12 8.81-1.78 2.89-3.63 5.71-5.53 8.48-1.9 2.78-3.87 5.51-5.9 8.18-2.02 2.66-4.11 5.24-6.25 7.78-2.15 2.55-4.34 5.04-6.6 7.47-2.25 2.42-4.57 4.79-6.93 7.09s-4.79 4.54-7.25 6.72c-2.47 2.18-4.96 4.3-7.52 6.35s-5.18 4.03-7.84 5.95c-2.65 1.93-5.33 3.78-8.06 5.57-2.74 1.79-5.54 3.51-8.35 5.17-2.82 1.66-5.67 3.24-8.56 4.76-2.88 1.52-5.8 2.98-8.75 4.36-2.96 1.38-5.96 2.7-8.99 3.93-3.02 1.24-6.06 2.4-9.14 3.49s-6.19 2.11-9.32 3.05c-3.13 0.95-6.28 1.83-9.46 2.63-3.18 0.79-6.37 1.5-9.59 2.14s-6.45 1.22-9.7 1.7c-3.26 0.49-6.52 0.89-9.81 1.22-3.28 0.33-6.58 0.58-9.88 0.75-3.31 0.17-6.64 0.27-9.97 0.27-2.8 0.01-5.62-0.09-8.43-0.2 14.08 9.76 29.6 17.88 46.45 24.01 105.81 38.52 222.97-16.08 261.47-121.88 38.5-105.81-16.1-222.95-121.92-261.47z" color="#000" class="coloreeeeec svgShape colorStroked3d7cf svgStroke"></path></g></svg></g></svg>