<svg id="SvgjsSvg1011" width="288" height="288" xmlns="http://www.w3.org/2000/svg" version="1.1" xmlns:xlink="http://www.w3.org/1999/xlink" xmlns:svgjs="http://svgjs.com/svgjs"><defs id="SvgjsDefs1012"></defs><g id="SvgjsG1013" transform="matrix(1,0,0,1,0,0)"><svg xmlns="http://www.w3.org/2000/svg" xmlns:xlink="http://www.w3.org/1999/xlink" viewBox="0 0 296.42 182.67" width="288" height="288"><defs><linearGradient id="i" x1="865.53" x2="889.13" y1="300.91" y2="300.91" gradientTransform="translate(-2.638 -5.697)" gradientUnits="userSpaceOnUse" xlink:href="#a"></linearGradient><linearGradient id="h" x1="960.45" x2="999.13" y1="255.1" y2="255.1" gradientTransform="translate(-2.515 -5.77)" gradientUnits="userSpaceOnUse" xlink:href="#a"></linearGradient><linearGradient id="g" x1="1003.8" x2="1007.1" y1="281.46" y2="272.67" gradientTransform="translate(-2.369 -5.916)" gradientUnits="userSpaceOnUse" spreadMethod="reflect"><stop offset="0" stop-color="#000000" class="stopColor000000 svgShape"></stop><stop offset="1" stop-opacity="0" stop-color="#000000" class="stopColor000000 svgShape"></stop></linearGradient><linearGradient id="f" x1="930.23" x2="815.04" y1="306.86" y2="345.85" gradientTransform="translate(-2.515 -5.77)" gradientUnits="userSpaceOnUse"><stop offset="0" stop-color="#fffb00" class="stopColor0ff svgShape"></stop><stop offset="1" stop-color="#fffb00" stop-opacity="0" class="stopColor0ff svgShape"></stop></linearGradient><linearGradient id="e" x1="1026.4" x2="1025.5" y1="391.28" y2="403.57" gradientTransform="translate(-2.515 -5.77)" gradientUnits="userSpaceOnUse"><stop offset="0" stop-color="#fffb00" class="stopColor0ff svgShape"></stop><stop offset="1" stop-color="#fffb00" stop-opacity="0" class="stopColor0ff svgShape"></stop></linearGradient><linearGradient id="a"><stop offset="0" stop-color="#fffb00" class="stopColor0ff svgShape"></stop><stop offset="1" stop-color="#fffb00" stop-opacity="0" class="stopColor0ff svgShape"></stop></linearGradient><linearGradient id="b" x1="863.26" x2="902.42" y1="280.68" y2="280.68" gradientTransform="translate(-2.248 -5.879)" gradientUnits="userSpaceOnUse" xlink:href="#a"></linearGradient><radialGradient id="d" cx="959.27" cy="331.76" r="81.549" gradientTransform="matrix(1.3404 -.07129 .03082 .57951 -334.22 172.18)" gradientUnits="userSpaceOnUse"><stop offset="0" stop-color="#fffc1e" stop-opacity="0" class="stopColor1effff svgShape"></stop><stop offset="1" stop-color="#fffc1e" class="stopColor1effff svgShape"></stop></radialGradient><radialGradient id="c" cx="966.41" cy="347.76" r="75.156" gradientTransform="matrix(.92706 -.0696 .02741 .36507 64.385 233.41)" gradientUnits="userSpaceOnUse"><stop offset="0" stop-color="#dfdfc9" stop-opacity="0" class="stopColorc9dfdf svgShape"></stop><stop offset="1" stop-color="#dfdfc9" stop-opacity=".849" class="stopColorc9dfdf svgShape"></stop></radialGradient></defs><g transform="translate(-368.882 -783.529)" fill="#e6c073" class="color000 svgShape"><path fill="#c86f5e" fill-opacity=".386" d="m549.97 870.18c-2.93 1.79-5.16 4.54-7.5 7.1-4.53 4.76-9.39 9.18-14.44 13.31-5.27 3.87-11.05 6.93-17 9.4 0 0.01 0.01 0.03 0 0.04-3.29 0.01-6.59 0-9.87 0.12-8.8 1.15-17.62 2.02-26.41 3.28-5.54 0.45-11.01 1.39-16.47 2.47l0.1-0.19c-0.27 0-0.52-0.09-0.79-0.12 0.59-0.84 1.17-1.67 1.66-2.56-0.67-0.64-1.55-0.2-2.41 0.03-1.07 0.31-2.05 0.81-3.06 1.31-1.08-0.49-2.18-0.94-3.25-1.47-2.37-1.19-4.72-2.43-7.06-3.69-2.25-1.19-4.44-2.49-6.59-3.87-2.08-1.36-4.11-2.82-6.07-4.38-1.81-1.44-3.47-3.04-5.5-4.12-0.49-0.25-0.9-0.31-1.31-0.35-0.16-0.18-0.3-0.38-0.47-0.56l-0.44 0.66c-0.32 0.08-0.64 0.13-1 0.34-1.27 1.87-0.78 3.51-0.09 5.5 0.94 2.78 1.86 5.53 3.06 8.19 1.18 2.4 2.55 4.69 4 6.91 1.19 1.76 2.47 3.47 3.72 5.18-0.13 0.18-0.29 0.31-0.4 0.5-0.15 0.16-0.32 0.3-0.44 0.5-0.04-0.06-0.09-0.09-0.13-0.15-0.64 1.32 0.18 2.85 1.35 4.37-6.27 1.71-12.49 3.66-18.69 5.66-1.05 0.46-3.15 0.36-2.97 2.09 0.37-0.1 0.75-0.15 1.13-0.25h0.03c7.52-2.02 15.19-3.42 22.84-4.78 1.21 1.19 2.57 2.44 3.25 3.31 4.48 3.55 9.44 6.47 14.63 8.75-1.52 0.65-3.02 1.34-4.54 1.97-3.31 1.33-6.64 2.67-10.03 3.78-4.7 1.58-9.43 2.94-14.22 4.16-6.59 1.63-13.25 3.08-19.9 4.44-6.76 1.36-13.57 2.46-20.38 3.5-2.39 0.36-4.94 0.6-7.43 1.03-1.25 0.21-2.47 0.51-3.66 0.87-1.19 0.37-2.33 0.81-3.41 1.41-0.29 0.47-0.34 0.8-0.5 1.19 1.04-0.62 2.15-1.07 3.32-1.44 0.01-0.01 0.04 0.01 0.06 0 1.16-0.37 2.4-0.66 3.62-0.88 2.49-0.43 5.04-0.63 7.41-1 6.81-1.03 13.62-2.17 20.37-3.53 6.65-1.36 13.28-2.77 19.88-4.4 4.79-1.22 9.55-2.59 14.25-4.16 3.39-1.11 6.69-2.45 10-3.78 2.06-0.85 4.12-1.74 6.16-2.66 0.01 0.01 0.01 0.03 0.03 0.03-2.03 0.92-4.07 1.81-6.13 2.66-3.31 1.33-6.61 2.67-10 3.78-4.7 1.57-9.46 2.94-14.25 4.16-6.59 1.63-13.22 3.04-19.87 4.4-6.76 1.36-13.57 2.5-20.38 3.54-2.37 0.36-4.91 0.56-7.4 1-1.25 0.21-2.51 0.47-3.69 0.84-1.17 0.37-2.28 0.85-3.31 1.47-0.01 0.02 0 0.04 0 0.06 0.12 0.4 0.31 0.77 0.59 1.09 0.28 0.33 0.65 0.62 1.03 0.85-0.4-0.24-0.8-0.51-1.09-0.85-0.29-0.32-0.47-0.72-0.6-1.12-0.11 0.3-0.37 0.68-0.4 0.94-0.09 0.6 0.04 1.05 0.34 1.43 0.3 0.39 0.79 0.69 1.41 0.91s1.37 0.37 2.25 0.47c3.36 0.32 6.75 0.28 10.12 0.22 3.93-0.1 7.85-0.28 11.75-0.75 4.94-0.6 9.85-1.32 14.72-2.35 3.07-0.61 6.15-1.28 9.19-2.03s6.06-1.55 9.06-2.47c3.12-0.88 6.21-1.85 9.31-2.78-0.57 0.8-1.27 1.48-1.72 2.38-0.62 1.55-1.13 3.11-0.93 4.84 0.35 1.88 1.03 3.55 2.37 4.88 1.38 1.26 2.9 2.27 4.63 2.9 1.82 0.64 3.67 1.17 5.5 1.82 1.87 0.52 3.69 0.96 5.62 0.43 1-0.23 1.94-0.56 2.88-0.97 0.45-0.07 0.92-0.16 1.37-0.28l0.35-0.65c0.02-0.02 0.04-0.02 0.06-0.03 1.26-0.98 2.45-2.05 3.34-3.44 1.04-1.65 2.08-3.21 2.35-5.22 0.16-1.48 0.25-2.96-0.19-4.41-0.58-1.47-1.28-2.78-2.44-3.84-0.03-0.03-0.07-0.04-0.09-0.06-0.28-0.35-0.48-0.75-0.82-1.07-0.6-0.58-1.2-1.15-1.84-1.65l-0.31 0.56c-0.35-0.19-0.66-0.44-1.03-0.59-0.85-0.36-1.73-0.64-2.63-0.78 3.4-1.13 6.82-2.22 10.22-3.35 2.74-0.87 5.47-1.72 8.22-2.56 0.05 0 0.1 0.03 0.16 0.03 15.83 0.94 31.72 2.3 47.59 1.69 18.28-1.3 36.84-0.62 54.81-4.94 3.35-0.84 9.12-3.04 9.81-6.94 0.11-0.09 0.25-0.14 0.35-0.25 0.01-0.01 0.18-0.2 0.37-0.65 0.2-0.46 0.43-1.2 0.63-2.41-0.04-0.4-0.03-0.83-0.1-1.22-0.06-0.38-0.2-0.71-0.53-0.94l0.1-0.15c-2.36-2.45-4.95-4.61-7.66-6.56-2.71-1.96-5.58-3.67-8.56-5.13-1-0.49-2.07-0.78-3.1-1.22-2.66-1.36-5.4-2.54-8.21-3.4-9.86-2.8-19.97-4.31-30.13-5.04 4.04-5.16 8.43-10.02 13.03-14.62 3.55-3.68 7.55-7.07 10.16-11.63 1.15-1.15 1.79-4.79-0.72-4.06zm-180.66 84.94c0.01-0.02 0-0.05 0-0.06-0.01 0-0.02 0.02-0.03 0.03 0.01 0.01 0.03 0.02 0.03 0.03zm180-79.25c-0.74 0.96-1.57 1.88-2.34 2.78-5.55 5.82-11.43 11.29-16.53 17.59-0.58 0.83-1.29 1.59-1.94 2.38 0.07-0.09 0.09-0.2 0.16-0.28 0.65-0.79 1.36-1.55 1.93-2.38 2.55-3.15 5.3-6.08 8.1-8.97 2.8-2.88 5.66-5.71 8.44-8.62 0.7-0.82 1.49-1.64 2.18-2.5zm-126.25 11.72c-0.31 0.04-0.57 0.24-0.87 0.4 0.05 0.16 0.08 0.3 0.12 0.57 0.14 0.86 0.25 2.1 0.47 2.75 0.94 2.77 1.9 5.56 3.1 8.22 1.17 2.39 2.54 4.69 4 6.9 1.19 1.78 2.43 3.5 3.68 5.22l-0.03 0.03-0.12 0.03c0.01 0.06-0.01 0.1 0 0.16 0 0.01-0.01 0.02 0 0.03l-0.22 0.38c-0.1 0.1-0.19 0.2-0.28 0.31l0.5-0.88 0.06-0.09c-1.26-1.72-2.53-3.41-3.72-5.19-1.45-2.21-2.79-4.51-3.97-6.9-1.19-2.66-2.15-5.45-3.09-8.22-0.29-0.86-0.41-2.65-0.63-3.32 0.33-0.18 0.67-0.38 1-0.4zm100.88 12.69h3.53c-0.04 0.07-0.09 0.14-0.13 0.21-1.13-0.08-2.26-0.15-3.4-0.21zm-14.28 0.78c0.28-0.01 0.56 0.03 0.84 0.03-1.21 0.01-2.41 0.06-3.62 0.09 0.92-0.02 1.85-0.11 2.78-0.12zm-51.41 2.97c0.06 0.02 0.14-0.02 0.19 0.03 1.32-1.96-0.31 0.33-0.78 1.03-0.1 0.15-0.18 0.32-0.28 0.47 0.24-0.45 0.44-0.92 0.71-1.35 0.09-0.13 0.02 0.02 0.16-0.18zm-5.37 39.71-0.44 0.82c1.07 0.08 2.04 0.46 3.03 0.87 0.14 0.05 0.24 0.16 0.37 0.22-0.16-0.01-0.33-0.02-0.5-0.03-0.95-0.39-1.87-0.77-2.9-0.84l0.03-0.07c-0.27-0.06-0.54-0.16-0.81-0.22-0.48-0.09-0.96 0.08-1.44 0.13 0.89-0.29 1.77-0.58 2.66-0.88zm-14.13 4.44c-0.65 0.45-1.25 0.97-1.84 1.5-0.25 0.23-0.48 0.46-0.72 0.69-0.31 0.76-0.59 1.53-0.78 2.31-0.18 0.71-0.27 1.43-0.22 2.19-0.17-1.72 0.36-3.25 1-4.78 0.2-0.33 0.79-0.97 1.19-1.47 0.46-0.14 0.91-0.3 1.37-0.44zm-2.56 2.19 0.06-0.13c-0.01 0.02-0.05 0.05-0.06 0.07s0.01 0.04 0 0.06zm25.94 5.78c-0.01 0.08-0.03 0.17-0.04 0.25-0.29 1.01-0.57 2.03-1.03 2.97-0.13 0.21-0.35 0.33-0.5 0.53 0.15-0.22 0.33-0.39 0.47-0.62 0.47-1 0.79-2.06 1.1-3.13zm-14.25 6.88c0.09 0.05 0.18 0.1 0.28 0.15l0.03 0.03c0.24 0.18 0.5 0.27 0.75 0.41 0.26 0.12 0.51 0.31 0.78 0.41 0.79 0.35 1.62 0.62 2.47 0.81-0.2 0.02-0.4 0.02-0.6 0.03-0.48-0.12-0.96-0.23-1.43-0.41-0.68-0.25-1.33-0.58-1.94-1.03-0.14-0.12-0.22-0.28-0.34-0.4z" class="color1e989a svgShape"></path><g transform="rotate(-9.97 4002.992 3072.99)" fill="#e6c073" class="color000 svgShape"><g fill="#fffeb8" transform="translate(-23.734 -161.29)" class="colorfff svgShape"><path d="m1092.4 433.47c0.7 0.36 0.8 1.19 1 2 0.3 2.06-0.8 3.6-1.9 5.31-1.6 1.84-3.7 3.13-5.9 4.18-3.5 1.37-7.1 2.12-10.8 2.73-4.9 0.62-9.8 1.12-14.7 1.55-4.5 0.39-9 0.78-13.4 1.14-4.4 0.33-8.8 0.53-13.1 0.47-4.2-0.17-8.3-0.36-12.4-0.49-3.9-0.12-7.9-0.14-11.9-0.23-4-0.18-8-0.34-12.05-0.55-3.47-0.18-6.93-0.29-10.4-0.37-3.73-0.08-7.46-0.11-11.19-0.14-3.65 0.01-7.29-0.08-10.94-0.17-3.29 0.03-6.55-0.46-9.81-0.78-2.75-0.17-5.43-0.65-8.04-1.49-1.99-0.61-3.67-1.64-5.15-3.06-0.56-1.39-0.58-2.89-1.15-4.34-1.04-1.96-2.56-3.62-4.01-5.29-1.55-1.89-3.32-3.55-5.23-5.07-2.06-1.58-3.97-3.34-5.86-5.12-1.19-1.16-2.43-2.26-3.73-3.29l0.62-1.18c1.31 1.03 2.55 2.13 3.75 3.29 1.88 1.78 3.79 3.54 5.86 5.12 1.91 1.52 3.69 3.19 5.25 5.08 1.45 1.68 2.98 3.34 4.04 5.31 0.62 1.43 0.64 2.91 1.12 4.32 1.45 1.42 3.11 2.43 5.08 3.03 2.6 0.84 5.28 1.31 8.01 1.47 3.26 0.32 6.52 0.82 9.8 0.78 3.65 0.09 7.3 0.17 10.95 0.17 3.73 0.03 7.45 0.06 11.18 0.14 3.47 0.09 6.94 0.19 10.4 0.37 4 0.21 8.1 0.37 12.1 0.55 3.9 0.09 7.9 0.11 11.9 0.24 4.1 0.12 8.2 0.31 12.3 0.48 4.4 0.05 8.7-0.14 13.1-0.48 4.5-0.36 9-0.75 13.5-1.13 4.9-0.44 9.8-0.94 14.6-1.55 3.7-0.62 7.3-1.37 10.8-2.75 2.2-1.07 4.3-2.34 5.9-4.2 0-0.04 0.5-0.66 0.7-2.92-0.2-0.72-0.2-1.57-0.9-1.91l0.6-1.22z" fill="#e6c073" class="color000 svgShape"></path><path d="m960.3 435.37c0.2-0.76 0.6-1.44 0.96-2.13 0.43-0.75 1.9-3.23 0.72-1.12-0.31-0.2-0.68-0.16-1.09-0.04-0.41 0.13-0.85 0.34-1.22 0.47-1.11 0.45-2.11 1.07-3.12 1.69l3.75 1.13z" color="#000" display="block" fill="#e6c073" class="color000 svgShape"></path><g transform="rotate(-2.626 4217.282 -919.049)" fill="#e6c073" class="color000 svgShape"><path d="m902.62 285.51c-0.91 0.05-1.8-0.09-2.69-0.24-2.04-0.47-3.98-1.28-5.94-2.03-2.62-1.02-5.23-2.07-7.82-3.16-2.49-1.02-4.92-2.16-7.32-3.39-2.32-1.2-4.57-2.53-6.77-3.94-2.03-1.3-3.91-2.78-6.14-3.71-1.39-0.51-2.26-0.39-3.26 0.41 0.52-1.93 0.81 1.8 1.37 3.06 1.19 2.7 2.39 5.39 3.85 7.95 1.41 2.31 3.01 4.5 4.72 6.6 1.39 1.68 2.87 3.3 4.33 4.93l-0.65 1.17c-1.46-1.63-2.94-3.25-4.34-4.93-1.71-2.11-3.31-4.3-4.74-6.61-1.46-2.57-2.67-5.26-3.86-7.96-0.87-1.94-1.5-3.53-0.27-5.48 1.11-0.72 2.04-0.87 3.44-0.34 2.24 0.93 4.13 2.41 6.17 3.72 2.19 1.41 4.44 2.74 6.76 3.94 2.39 1.22 4.82 2.36 7.31 3.39 2.59 1.08 5.2 2.13 7.82 3.15 1.94 0.75 3.88 1.56 5.91 2.02 0.89 0.13 1.77 0.29 2.67 0.23l-0.55 1.22z" fill="#e6c073" class="color000 svgShape"></path><path d="m902.42 285.46c-0.8 0.01-1.62-0.05-2.41-0.19-2.04-0.46-3.95-1.28-5.9-2.03-2.62-1.02-5.25-2.07-7.85-3.16-2.49-1.02-4.91-2.18-7.31-3.4-2.32-1.21-4.58-2.53-6.78-3.94-1.01-0.65-2-1.35-3-2s-2.01-1.23-3.13-1.69c-0.69-0.25-1.26-0.37-1.78-0.31-0.35 0.05-0.66 0.3-1 0.5 0.07 0.16 0.13 0.27 0.19 0.53 0.21 0.85 0.41 2.09 0.69 2.72 1.19 2.7 2.39 5.4 3.84 7.97 1.42 2.3 3.05 4.49 4.75 6.59 1.4 1.69 2.85 3.31 4.31 4.94l-0.37 0.66 25.75-7.19z" color="#000" display="block" fill="#e6c073" class="color000 svgShape"></path></g><path d="m1044.7 421.8c4.9-0.03 9.7 0.08 14.5 0.34 3.5 0.09 7 0.43 10.5 1.02 3.5 0.58 6.9 1.42 10.2 2.51 3.4 1.09 6.6 2.44 9.7 4.05s6.1 3.46 8.9 5.61l-0.1 0.13c0.4 0.19 0.6 0.51 0.7 0.89 0.1 0.37 0.2 0.8 0.3 1.19-0.1 1.23-0.3 2-0.5 2.48-0.1 0.48-0.2 0.66-0.3 0.68-0.8 1.01-1.9 1.87-3 2.62-1 0.75-2.2 1.39-3.4 1.97-1.9 0.75-3.8 1.33-5.8 1.8-1.9 0.48-3.9 0.86-5.9 1.19-5.3 0.67-10.6 1.23-15.9 1.7-4.9 0.42-9.8 0.83-14.7 1.23-4.7 0.36-9.5 0.56-14.2 0.51-4.5-0.19-9-0.38-13.5-0.51-4.3-0.14-8.6-0.18-12.9-0.27-4.4-0.2-8.8-0.39-13.14-0.62-3.77-0.19-7.55-0.28-11.32-0.37-4.06-0.1-8.12-0.14-12.17-0.17-3.97 0.01-7.94-0.07-11.9-0.17-3.58 0.04-7.13-0.51-10.68-0.85-1.49-0.09-2.97-0.25-4.42-0.51s-2.87-0.63-4.28-1.09c-1.07-0.33-2.08-0.77-3-1.32s-1.76-1.21-2.55-1.98c-0.01-0.05-0.01-0.11-0.03-0.17 5.03-1.69 10.07-3.41 15.13-5.03s10.16-3.15 15.3-4.49c11.7-2.82 23.46-5.3 35.16-8.26 7.1-1.34 14.3-2.34 21.6-3.03 7.2-0.68 14.4-1.04 21.7-1.08z" color="#000" display="block" fill="#e6c073" class="color000 svgShape"></path><path d="m959.72 436.72c0.08-0.94 0.73-1.72 1.17-2.54 0.43-0.76 1.9-3.25 0.72-1.14-0.62-0.4-1.59 0.16-2.32 0.43-1.12 0.45-2.12 1.09-3.14 1.72-0.07 0.04-0.15 0.09-0.22 0.14l0.48-1.25c0.08-0.05 0.15-0.1 0.22-0.14 1.02-0.63 2.04-1.26 3.16-1.71 0.88-0.32 1.78-0.86 2.56-0.31-0.54 1.22-1.19 2.37-1.88 3.53-0.1 1.64 0.13-1.34-0.01 0.15l-0.74 1.12z" fill="#e6c073" class="color000 svgShape"></path><path d="m1093.5 435.48c0.5 0.43 1 0.83 1.5 1.28 0.7 0.38 1.2 0.79 1.6 1.21s0.8 0.86 1 1.31c0.2 0.44 0.3 0.89 0.3 1.34 0 0.44 0 0.9-0.2 1.34-0.2 0.87-0.8 1.67-1.6 2.39-0.8 0.71-1.8 1.31-2.9 1.72-2.4 1.12-4.9 2.08-7.3 2.93-2.5 0.85-5.1 1.59-7.6 2.23-5.1 1.3-10.3 2.25-15.4 3.16-8.5 1.36-17 2.92-25.5 4.31-4.3 0.69-8.5 1.34-12.8 1.88s-8.6 0.98-12.9 1.27c-6.9 0.29-13.78 0.99-20.69 1.47-3.45 0.24-6.89 0.43-10.34 0.48s-6.92-0.05-10.37-0.35c-3.29-0.55-6.63-1.23-9.94-2.11s-6.59-1.96-9.72-3.31c-1.56-0.68-3.09-1.44-4.57-2.27-1.48-0.82-2.92-1.72-4.3-2.71-1.37-0.98-2.67-2.05-3.91-3.22-1.25-1.17-2.43-2.43-3.51-3.79 0.22-0.59 0.56-1.02 1-1.37 0.43-0.36 0.96-0.64 1.53-0.87 1.14-0.44 2.47-0.7 3.67-1.21 0.19-0.06 0.38-0.12 0.57-0.19 0.08 0.35 0.14 0.72 0.28 1.05 0.74 0.73 1.52 1.36 2.38 1.89 0.86 0.52 1.79 0.93 2.79 1.24 1.31 0.43 2.64 0.77 3.98 1.02s2.7 0.42 4.07 0.51c3.28 0.32 6.55 0.83 9.85 0.8 3.65 0.09 7.31 0.17 10.97 0.16 3.74 0.03 7.48 0.07 11.22 0.16 3.47 0.08 6.96 0.17 10.43 0.35 4.01 0.21 8.11 0.39 12.11 0.57 4 0.09 8 0.13 11.9 0.26 4.2 0.12 8.3 0.29 12.4 0.47 4.4 0.06 8.8-0.14 13.1-0.47 4.6-0.37 9.1-0.76 13.6-1.15 4.9-0.44 9.8-0.97 14.7-1.6 1.8-0.31 3.7-0.64 5.5-1.08s3.6-1 5.3-1.69c1.1-0.54 2.2-1.12 3.2-1.82s2-1.51 2.8-2.45c0.5-0.83 1-1.63 1.3-2.46s0.5-1.7 0.5-2.68z" color="#000" display="block" fill="#e6c073" class="color000 svgShape"></path><path d="M1003.3 453.83h.4l-.3.28-8.94 8.78-.07.03h-.06l-24.12 1.35h-.54l.41-.29 12.47-9.09.03-.03h.03l20.69-1.03zM965.17 473.19c.74.43 1.45.91 2.15 1.42.77.54 1.41 1.17 1.97 1.87.56.69 1.04 1.44 1.47 2.27.36.82.55 1.71.65 2.58s.12 1.73.11 2.61c-.23 1.24-.46 2.48-.9 3.66-.89 1.78-2.15 3.23-3.55 4.59-.65.6-1.37 1.03-2.12 1.45-.86.25-1.75.45-2.69.41-1.06-.06-2.12-.15-3.15-.37s-2.03-.56-2.98-1.08c-.81-.56-1.5-1.18-2.05-1.91-.54-.73-.93-1.58-1.11-2.61-.14-.98-.23-1.96-.25-2.95-.01-.98.06-1.97.32-2.94.13-.35.3-.94.76-1.76.45-.82 1.18-1.86 2.37-3.02.84-.71 1.66-1.33 2.54-1.79s1.83-.76 2.94-.82c.96-.1 1.91-.21 2.87-.19l.65-1.42z" color="#000" display="block" fill="#e6c073" class="color000 svgShape"></path><g transform="translate(-74.273 83.545)" fill="#e6c073" class="color000 svgShape"><path d="m1034.6 389.26c1.2-0.05 2.3 0.23 3.4 0.52 1.7 0.43 3.2 1.28 4.7 2.3 1.3 0.91 2.2 2.12 3 3.52 0.7 1.38 0.7 2.86 0.7 4.35 0 2.03-1 3.7-1.9 5.46-0.8 1.5-1.9 2.7-3.1 3.83-1.4 1.21-3.1 1.9-4.8 2.48-2 0.75-4 0.54-6 0.25-2-0.42-4.1-0.71-6.1-1.12-1.9-0.42-3.6-1.25-5.2-2.34-1.6-1.16-2.5-2.72-3.1-4.55-0.4-1.69-0.1-3.29 0.4-4.91 0.8-1.84 1.8-3.5 3-5l-0.4 1.26c-1.7 2-1.5 2.08-1.8 2.65-0.5 1.6-0.9 3.18-0.5 4.86 0.5 1.81 1.4 3.36 3 4.5 1.6 1.08 3.3 1.91 5.2 2.32 2 0.41 4 0.7 6 1.12 2.1 0.29 4 0.48 6-0.28 1.7-0.59 3.4-1.28 4.7-2.5 1.2-1.13 2.4-2.34 3.1-3.84 0.4-0.98 0.6-2.03 0.8-3.07 0-1.48 0-2.95-0.7-4.32-0.7-1.39-1.6-2.59-3-3.49-1.4-0.99-2.9-1.87-4.6-2.27-1.1-0.29-2.2-0.56-3.3-0.51l0.5-1.22z" fill="#e6c073" class="color000 svgShape"></path><path d="m1039.6 393.26c-0.8-0.01-1.7 0.1-2.5 0.17-1.9 0.11-3.3 1-4.8 2.19-2 1.95-2.5 3.39-2.7 3.98-0.5 1.63-0.3 3.29-0.1 4.94 0.4 1.73 1.4 2.86 2.8 3.8 1.7 0.87 3.5 1.1 5.3 1.2 1.4 0.06 2.6-0.33 3.9-0.8l-0.5 1.24c-1.3 0.47-2.5 0.85-3.9 0.78-1.9-0.1-3.7-0.34-5.4-1.23-1.5-0.95-2.5-2.1-2.9-3.85-0.2-1.66-0.4-3.33 0-4.99 0.8-2.4 2.1-4.59 4-6.32 1.5-1.19 2.9-2.06 4.8-2.16 0.9-0.08 1.7-0.18 2.6-0.17l-0.6 1.22z" fill="#e6c073" class="color000 svgShape"></path><path d="m1033.2 390.51c0.3 0.03 0.6 0.09 0.9 0.13v0.06c1.1-0.05 2.2 0.21 3.3 0.5 1 0.23 1.9 0.61 2.7 1.06-0.8-0.01-1.6 0.08-2.4 0.16-1 0.05-1.9 0.28-2.6 0.65-0.8 0.38-1.5 0.91-2.3 1.5-0.9 0.87-1.7 1.85-2.4 2.91-0.6 1.06-1.1 2.21-1.6 3.41-0.2 0.82-0.2 1.66-0.2 2.5 0 0.83 0.1 1.67 0.2 2.5 0.2 0.88 0.6 1.59 1.1 2.22 0.5 0.62 1.1 1.14 1.8 1.62 0.7 0.37 1.5 0.61 2.2 0.78s1.5 0.28 2.3 0.35c-0.8 0.2-1.7 0.27-2.5 0.28-0.8 0-1.7-0.07-2.5-0.19-2-0.42-4.1-0.68-6.1-1.09-0.9-0.21-1.8-0.52-2.7-0.91s-1.7-0.87-2.5-1.41c-0.8-0.57-1.4-1.24-1.9-2-0.5-0.75-0.8-1.59-1.1-2.5-0.2-0.83-0.1-1.64 0-2.43 0.1-0.8 0.3-1.59 0.5-2.38v-0.06c0-0.02 0.1-0.08 0.1-0.1l-0.1 0.16c0.3-0.26 0.5-0.53 0.7-0.78 0.7-0.68 1.3-1.37 2.1-1.94 0.8-0.58 1.7-1.07 2.6-1.5 1.1-0.55 2.2-1.1 3.4-1.59s2.4-0.88 3.6-1.25c1.1-0.33 2.3-0.73 3.4-0.66z" color="#000" display="block" fill="#e6c073" class="color000 svgShape"></path></g><path d="m974.72 453.21c-1.46 0.85-2.93 1.69-4.38 2.56-2.49 1.46-4.95 2.94-7.4 4.47-2.64 1.58-5.38 2.98-8.1 4.4-3.37 1.73-6.74 3.46-10.22 4.97-4.82 2.14-9.72 4.08-14.68 5.88-6.84 2.42-13.77 4.65-20.69 6.81-7.04 2.17-14.15 4.11-21.28 5.97-2.51 0.65-5.21 1.17-7.82 1.91-1.3 0.36-2.55 0.8-3.78 1.31-1.22 0.5-2.39 1.08-3.47 1.81-0.25 0.5-0.28 0.84-0.4 1.25 1.03-0.74 2.17-1.33 3.37-1.84 1.21-0.52 2.51-0.95 3.82-1.32 2.6-0.73 5.29-1.22 7.78-1.87 7.13-1.85 14.24-3.83 21.28-6 6.92-2.16 13.82-4.36 20.65-6.78 4.97-1.79 9.89-3.75 14.72-5.88 3.48-1.51 6.85-3.24 10.22-4.97 2.72-1.42 5.46-2.83 8.1-4.4 2.45-1.53 4.95-3.01 7.43-4.47 1.57-0.94 3.15-1.86 4.72-2.78l0.41-1.03h-0.28zm28.68 0c-2 0.86-4.04 1.72-6.03 2.62-3.61 1.68-7.17 3.47-10.81 5.1-4.86 2.16-9.83 4.03-14.72 6.12-6.14 2.7-12.28 5.45-18.47 8.06-6.13 2.64-12.34 5.11-18.56 7.53-6.19 2.55-12.51 4.76-18.91 6.72-5.07 1.61-10.22 2.93-15.4 4.13-4.1 0.94-8.24 1.61-12.41 2.19-3.58 0.47-7.16 0.9-10.78 1-0.86 0.17-1.88 0.05-2.78-0.32-0.45-0.18-0.9-0.42-1.25-0.72-0.34-0.29-0.6-0.64-0.78-1.03-0.09 0.31-0.31 0.71-0.31 0.97-0.03 0.61 0.16 1.06 0.53 1.41 0.36 0.34 0.91 0.57 1.59 0.72 0.69 0.14 1.49 0.19 2.44 0.18 3.62-0.09 7.22-0.53 10.81-1 4.17-0.57 8.34-1.24 12.44-2.18 5.18-1.2 10.33-2.49 15.4-4.1 3.2-0.98 6.38-2.04 9.54-3.15 3.15-1.12 6.28-2.29 9.37-3.57 6.22-2.42 12.43-4.89 18.56-7.53 6.19-2.6 12.33-5.35 18.47-8.06 4.89-2.09 9.86-3.99 14.72-6.16 3.64-1.62 7.21-3.37 10.81-5.06 2.19-0.99 4.43-1.92 6.63-2.94l0.4-0.93h-0.5z" color="#000" display="block" fill="#e6c073" class="color000 svgShape"></path><path d="M872.5 494.61c0-.02-.01-.04 0-.06l-.03.03c0 .01.02.02.03.03zM945.88 450.23l-4.28 2.68-2.06-1.34 6.34-1.34z" color="#000" display="block" fill="#e6c073" class="color000 svgShape"></path><path d="m934.34 445.72c8.65 11.01 22.91 15.26 36.17 17.43 13.78 1.2 27.57-0.99 41.29-1.55 17.2-1.13 34.1-4.66 51-7.31 10.3-1.79 20.7-3.79 30.2-8.18 4.5-1.61 7.1-6.12 1.9-9.11-10.7-9.55-25-14.17-39.1-14.56-17.8-0.94-35.7 0.19-53.2 3.47-10.73 2.71-21.55 5-32.3 7.6-9.94 2.59-19.69 5.94-29.43 9.2-2.67 1.1-6.1 0.93-6.52 4.12 0.87-6.43 10.73-5.3 15.49-8.22 9.6-3.03 19.14-6.28 29.04-8.18 9.21-2.32 18.52-4.24 27.72-6.45 20.1-3.01 40.6-4.47 60.8-1.52 11.2 1.88 22.1 7.15 30 15.34 3.9 5.61-4.4 9.73-8.8 11.29-18.6 6.47-38.5 8.06-57.8 11.58-16.8 2.53-33.85 3.09-50.82 4.08-12.91 0.45-25.92-3.1-37.08-9.52-2.46-2.34-9.87-6.07-8.56-9.51z" fill="#e6c073" class="color000 svgShape"></path><path d="m1003.4 453.23h-28.33l-0.41 1.03c-1.58 0.92-3.15 1.84-4.72 2.78-2.49 1.47-4.99 2.94-7.44 4.47-2.64 1.58-5.37 2.98-8.09 4.41-3.38 1.72-6.74 3.45-10.22 4.96-4.83 2.13-9.75 4.09-14.72 5.88-6.84 2.42-13.73 4.62-20.65 6.78-7.05 2.17-14.16 4.15-21.29 6-2.48 0.65-5.17 1.14-7.78 1.88-1.3 0.36-2.6 0.79-3.81 1.31-1.2 0.51-2.34 1.1-3.37 1.84-0.01 0.02 0 0.05 0 0.06 0.17 0.39 0.44 0.74 0.78 1.04 0.35 0.3 0.79 0.53 1.25 0.71 0.9 0.37 1.92 0.49 2.78 0.32 3.61-0.1 7.2-0.53 10.78-1 4.16-0.58 8.31-1.25 12.41-2.19 5.18-1.2 10.33-2.52 15.4-4.13 6.4-1.96 12.72-4.16 18.91-6.71 6.22-2.43 12.42-4.9 18.56-7.54 6.19-2.6 12.32-5.35 18.47-8.06 4.89-2.08 9.86-3.96 14.72-6.12 3.63-1.63 7.2-3.41 10.81-5.1 1.99-0.9 3.96-1.76 5.96-2.62z" color="#000" display="block" fill="#e6c073" class="color000 svgShape"></path><path d="m1003.4 453.23h-28.33l-0.41 1.03c-1.58 0.92-3.15 1.84-4.72 2.78-2.49 1.47-4.99 2.94-7.44 4.47-2.64 1.58-5.37 2.98-8.09 4.41-3.38 1.72-6.74 3.45-10.22 4.96-4.83 2.13-9.75 4.09-14.72 5.88-6.84 2.42-13.73 4.62-20.65 6.78-7.05 2.17-14.16 4.15-21.29 6-2.48 0.65-5.17 1.14-7.78 1.88-1.3 0.36-2.6 0.79-3.81 1.31-1.2 0.51-2.34 1.1-3.37 1.84-0.01 0.02 0 0.05 0 0.06 0.17 0.39 0.44 0.74 0.78 1.04 0.35 0.3 0.79 0.53 1.25 0.71 0.9 0.37 1.92 0.49 2.78 0.32 3.61-0.1 7.2-0.53 10.78-1 4.16-0.58 8.31-1.25 12.41-2.19 5.18-1.2 10.33-2.52 15.4-4.13 6.4-1.96 12.72-4.16 18.91-6.71 6.22-2.43 12.42-4.9 18.56-7.54 6.19-2.6 12.32-5.35 18.47-8.06 4.89-2.08 9.86-3.96 14.72-6.12 3.63-1.63 7.2-3.41 10.81-5.1 1.99-0.9 3.96-1.76 5.96-2.62z" color="#000" display="block" fill="#e6c073" class="color000 svgShape"></path><g transform="translate(57.52 150.92)" fill="#e6c073" class="color000 svgShape"><path d="m1019.9 274.25c-0.1 1.21-0.9 1.95-1.8 2.69-1.3 0.98-2.9 1.36-4.5 1.75-2.2 0.58-4.4 1-6.7 1.4-3.1 0.55-2.7 1.45-2.9 1.83 0.1 2.02 1.1 3.3 2.7 4.44 1.7 1.03 3.7 1.29 5.7 1.29 2.1-0.14 4.1-0.81 6.1-1.48 1.8-0.59 3.6-1.4 5.2-2.31 1.6-0.79 2.9-1.91 3.9-3.31-0.2 0.47-0.3 0.47 0.2-1.01l0.8-1.1c-0.4 1.18-0.7 2.34-1.4 3.38-1.1 1.39-2.4 2.49-3.9 3.29-1.7 0.9-3.5 1.71-5.3 2.3-2 0.67-4 1.33-6.1 1.47-2.1-0.02-4.1-0.29-5.9-1.33-1.6-1.15-2.6-2.45-2.7-4.51 0-2.72 1.7-3.8 4.1-4.18 2.3-0.4 4.5-0.82 6.8-1.41 1.5-0.38 3.1-0.76 4.4-1.76 1.6-1.48 0.3 0.31 0.6-0.32l0.7-1.12z" fill="#e6c073" class="color000 svgShape"></path><path d="m1019.6 274.94c-0.1 0.29-0.2 0.63-0.4 0.88-0.3 0.43-0.7 0.78-1.1 1.15-0.7 0.49-1.4 0.83-2.2 1.1-0.7 0.26-1.5 0.46-2.3 0.65-2.2 0.59-4.5 1.01-6.8 1.41-1.5 0.27-2.2 0.63-2.5 0.97-0.4 0.34-0.3 0.68-0.4 0.87 0.1 1.01 0.3 1.82 0.8 2.53 0.5 0.72 1.1 1.34 1.9 1.91 0.9 0.52 1.8 0.84 2.8 1.03 0.9 0.2 1.9 0.25 2.9 0.25 1.1-0.07 2.1-0.26 3.1-0.53s2-0.6 3-0.94c1.8-0.59 3.6-1.4 5.3-2.31 0.8-0.4 1.5-0.88 2.1-1.44 0.6-0.55 1.2-1.17 1.7-1.87-0.2 0.47-0.2 0.45 0.3-1.03l0.6-0.91c-0.1-0.03-0.1-0.07-0.2-0.09-2.7-1.44-5.6-2.64-8.6-3.63z" color="#000" display="block" fill="#e6c073" class="color000 svgShape"></path></g><g transform="translate(57.52 150.92)" fill="#e6c073" class="color000 svgShape"><path d="m959.61 271.71c6.06-3.18 11.86-6.93 17.03-11.41 4.91-4.72 9.57-9.7 13.86-14.98 2.2-2.82 4.27-5.85 7.18-7.99 2.62-1.03 2.3 2.69 1.21 3.97-2.26 4.85-6.13 8.68-9.48 12.76-4.59 5.37-8.92 10.99-12.76 16.9 0.53-2.02 2.15-3.56 3.19-5.35 4.71-6.88 10.35-13.03 15.6-19.49 1.31-1.81 2.95-3.57 3.49-5.78 0.52-2.69-2.48-1.96-3.36-0.38-3.77 3.8-6.54 8.46-10.34 12.24-4.53 4.93-9.02 10.01-14.65 13.73-3.65 2.59-7.46 4.97-11.44 7.03 0.16-0.42 0.32-0.84 0.47-1.25z" fill="#e6c073" class="color000 svgShape"></path><path d="m977.13 269.99c0.29-0.72 0.61-1.44 1.07-2.09 0.6-0.86 1.25-1.7 1.78-2.6 2.35-3.44 4.93-6.67 7.59-9.87 2.66-3.21 5.38-6.37 8-9.6 0.66-0.9 1.42-1.8 2.06-2.75 0.64-0.94 1.17-1.92 1.44-3.03 0.13-0.67 0.03-1.15-0.19-1.43-0.22-0.29-0.57-0.4-0.97-0.38-0.39 0.02-0.82 0.19-1.21 0.44-0.4 0.25-0.75 0.6-0.97 1-1.89 1.9-3.52 4.01-5.16 6.12s-3.29 4.21-5.19 6.1c-2.26 2.46-4.51 4.96-6.9 7.31-1.2 1.18-2.44 2.33-3.72 3.41-1.29 1.07-2.63 2.1-4.03 3.03-3.29 2.33-6.74 4.4-10.28 6.31l16.68-1.97z" color="#000" display="block" fill="#e6c073" class="color000 svgShape"></path><path d="m977.13 269.99c0.29-0.72 0.61-1.44 1.07-2.09 0.6-0.86 1.25-1.7 1.78-2.6 2.35-3.44 4.93-6.67 7.59-9.87 2.66-3.21 5.38-6.37 8-9.6 0.66-0.9 1.42-1.8 2.06-2.75 0.64-0.94 1.17-1.92 1.44-3.03 0.13-0.67 0.03-1.15-0.19-1.43-0.22-0.29-0.57-0.4-0.97-0.38-0.39 0.02-0.82 0.19-1.21 0.44-0.4 0.25-0.75 0.6-0.97 1-1.89 1.9-3.52 4.01-5.16 6.12s-3.29 4.21-5.19 6.1c-2.26 2.46-4.51 4.96-6.9 7.31-1.2 1.18-2.44 2.33-3.72 3.41-1.29 1.07-2.63 2.1-4.03 3.03-3.29 2.33-6.74 4.4-10.28 6.31l16.68-1.97z" color="#000" display="block" fill="#e6c073" class="color000 svgShape"></path></g><g transform="rotate(2.524 -2543.593 1677.485)" fill="#e6c073" class="color000 svgShape"><path d="m882.05 297.62c-7.52 3.27-15.05 6.54-22.32 10.33-0.54 0.58-2.39 1.75-2.33 0.34 1.12-0.9 2.61-1.06 3.88-1.67 4.55-2 9.27-3.57 13.96-5.2 4.64-1.58 9.3-3.09 13.93-4.69-0.33 1.49-2.02 1.82-3.27 2.18-9.64 3.24-19.36 6.32-28.7 10.39-0.46-1.67 1.78-1.93 2.81-2.56 6.81-3.29 13.62-6.58 20.58-9.51 0.69-0.34 2.6-1.24 1.46 0.39z" fill="#e6c073" class="color000 svgShape"></path><path d="m865.66 305c3.03-1.14 6.05-2.34 9.12-3.4 4.81-1.64 9.66-3.21 14.47-4.87h-7.19c0.07 0.02 0.19 0 0.2 0.06 0.03 0.15-0.06 0.4-0.36 0.82-3.93 1.71-7.86 3.42-11.77 5.2-1.51 0.69-2.97 1.48-4.47 2.19z" color="#000" display="block" fill="#e6c073" class="color000 svgShape"></path><path d="m865.66 305c3.03-1.14 6.05-2.34 9.12-3.4 4.81-1.64 9.66-3.21 14.47-4.87h-7.19c0.07 0.02 0.19 0 0.2 0.06 0.03 0.15-0.06 0.4-0.36 0.82-3.93 1.71-7.86 3.42-11.77 5.2-1.51 0.69-2.97 1.48-4.47 2.19z" color="#000" display="block" fill="#e6c073" class="color000 svgShape"></path></g></g><g transform="translate(34.874 -10.656)" fill="#e6c073" class="color000 svgShape"><path fill="#fffb00" d="m1034.8 282.55c0.8 0.36 0.9 1.19 1.1 1.99 0.2 2.07-0.9 3.6-1.9 5.32-1.6 1.84-3.7 3.12-5.9 4.18-3.5 1.36-7.2 2.11-10.8 2.73-4.9 0.61-9.8 1.12-14.7 1.55-4.48 0.38-8.97 0.77-13.47 1.13-4.35 0.33-8.72 0.53-13.09 0.48-4.12-0.18-8.23-0.36-12.35-0.49-3.96-0.12-7.92-0.14-11.87-0.23-4.03-0.18-8.06-0.35-12.09-0.56-3.47-0.17-6.93-0.28-10.4-0.36-3.73-0.09-7.46-0.12-11.19-0.15-3.65 0.01-7.29-0.08-10.94-0.17-3.29 0.04-6.55-0.46-9.81-0.78-2.75-0.16-5.43-0.64-8.04-1.49-1.99-0.6-3.67-1.63-5.15-3.05-0.56-1.4-0.58-2.89-1.15-4.34-1.04-1.97-2.56-3.62-4.01-5.3-1.55-1.88-3.32-3.55-5.23-5.06-2.06-1.58-3.97-3.34-5.86-5.13-1.19-1.15-2.43-2.25-3.73-3.28l0.62-1.18c1.31 1.03 2.55 2.13 3.75 3.29 1.88 1.78 3.79 3.54 5.86 5.11 1.91 1.53 3.69 3.19 5.24 5.09 1.46 1.67 2.99 3.34 4.05 5.31 0.62 1.43 0.64 2.9 1.12 4.32 1.45 1.41 3.11 2.42 5.08 3.02 2.6 0.84 5.28 1.31 8.01 1.48 3.26 0.32 6.52 0.81 9.8 0.77 3.65 0.09 7.3 0.18 10.95 0.17 3.72 0.03 7.45 0.06 11.18 0.15 3.47 0.08 6.94 0.19 10.4 0.36 4.03 0.21 8.06 0.38 12.09 0.56 3.96 0.09 7.92 0.11 11.88 0.23 4.11 0.13 8.23 0.31 12.34 0.49 4.37 0.05 8.73-0.15 13.08-0.48 4.5-0.36 8.99-0.75 13.53-1.14 4.8-0.43 9.7-0.93 14.6-1.55 3.7-0.62 7.3-1.37 10.8-2.74 2.2-1.07 4.3-2.35 5.9-4.21 0-0.03 0.5-0.66 0.6-2.91-0.1-0.72-0.1-1.57-0.8-1.91l0.5-1.22z" class="color0ff svgShape"></path><path fill="#fffb00" d="m902.78 284.44c0.2-0.75 0.6-1.43 0.96-2.12 0.43-0.76 1.9-3.23 0.72-1.13-0.31-0.2-0.68-0.15-1.09-0.03s-0.85 0.33-1.22 0.47c-1.11 0.44-2.11 1.06-3.12 1.69l3.75 1.12z" color="#000" display="block" class="color0ff svgShape"></path><g transform="rotate(-2.626 892.801 261.425)" fill="#e6c073" class="color000 svgShape"><path d="m902.62 285.51c-0.91 0.05-1.8-0.09-2.69-0.24-2.04-0.47-3.98-1.28-5.94-2.03-2.62-1.02-5.23-2.07-7.82-3.16-2.49-1.02-4.92-2.16-7.32-3.39-2.32-1.2-4.57-2.53-6.77-3.94-2.03-1.3-3.91-2.78-6.14-3.71-1.39-0.51-2.26-0.39-3.26 0.41 0.52-1.93 0.81 1.8 1.37 3.06 1.19 2.7 2.39 5.39 3.85 7.95 1.41 2.31 3.01 4.5 4.72 6.6 1.39 1.68 2.87 3.3 4.33 4.93l-0.65 1.17c-1.46-1.63-2.94-3.25-4.34-4.93-1.71-2.11-3.31-4.3-4.74-6.61-1.46-2.57-2.67-5.26-3.86-7.96-0.87-1.94-1.5-3.53-0.27-5.48 1.11-0.72 2.04-0.87 3.44-0.34 2.24 0.93 4.13 2.41 6.17 3.72 2.19 1.41 4.44 2.74 6.76 3.94 2.39 1.22 4.82 2.36 7.31 3.39 2.59 1.08 5.2 2.13 7.82 3.15 1.94 0.75 3.88 1.56 5.91 2.02 0.89 0.13 1.77 0.29 2.67 0.23l-0.55 1.22z" fill="#e6c073" class="color000 svgShape"></path><path fill="url(#b)" d="m902.42 285.46c-0.8 0.01-1.62-0.05-2.41-0.19-2.04-0.46-3.95-1.28-5.9-2.03-2.62-1.02-5.25-2.07-7.85-3.16-2.49-1.02-4.91-2.18-7.31-3.4-2.32-1.21-4.58-2.53-6.78-3.94-1.01-0.65-2-1.35-3-2s-2.01-1.23-3.13-1.69c-0.69-0.25-1.26-0.37-1.78-0.31-0.35 0.05-0.66 0.3-1 0.5 0.07 0.16 0.13 0.27 0.19 0.53 0.21 0.85 0.41 2.09 0.69 2.72 1.19 2.7 2.39 5.4 3.84 7.97 1.42 2.3 3.05 4.49 4.75 6.59 1.4 1.69 2.85 3.31 4.31 4.94l-0.37 0.66 25.75-7.19z" color="#000" display="block"></path></g><path fill="url(#c)" d="m985 271.36c4.45-0.03 8.9 0.07 13.34 0.31 3.26 0.09 6.46 0.4 9.66 0.94 3.2 0.53 6.3 1.31 9.4 2.31 3 1 6 2.24 8.9 3.72 2.8 1.48 5.6 3.18 8.1 5.15v0.13c0.3 0.17 0.5 0.47 0.6 0.81 0.1 0.35 0.1 0.74 0.2 1.09 0 1.13-0.2 1.85-0.4 2.29-0.1 0.44-0.2 0.6-0.2 0.62-0.8 0.93-1.8 1.72-2.8 2.41s-2.1 1.27-3.1 1.81c-1.8 0.69-3.6 1.22-5.4 1.66-1.8 0.43-3.6 0.78-5.4 1.09-4.9 0.62-9.8 1.13-14.7 1.56-4.44 0.39-8.92 0.77-13.42 1.13-4.35 0.33-8.73 0.51-13.09 0.47-4.12-0.18-8.23-0.35-12.35-0.47-3.95-0.13-7.91-0.17-11.87-0.25-4.03-0.18-8.07-0.36-12.1-0.57-3.46-0.17-6.93-0.26-10.4-0.34-3.73-0.09-7.46-0.12-11.19-0.16-3.65 0.01-7.29-0.06-10.94-0.15-3.29 0.04-6.54-0.47-9.81-0.78-1.37-0.09-2.73-0.23-4.06-0.47-1.34-0.24-2.64-0.58-3.94-1-0.98-0.3-1.9-0.71-2.75-1.22s-1.62-1.1-2.34-1.81c-0.02-0.05-0.02-0.11-0.03-0.16 4.62-1.55 9.25-3.13 13.9-4.62 4.66-1.5 9.34-2.9 14.06-4.13 10.75-2.6 21.57-4.88 32.29-7.59 6.56-1.23 13.19-2.16 19.84-2.78 6.65-0.63 13.32-0.96 20-1z" color="#000" display="block"></path><path d="m902.2 285.8c0.08-0.94 0.73-1.73 1.17-2.55 0.42-0.75 1.9-3.24 0.71-1.14-0.61-0.39-1.58 0.16-2.31 0.44-1.12 0.45-2.12 1.09-3.14 1.71-0.07 0.05-0.15 0.1-0.22 0.14l0.48-1.25c0.08-0.04 0.15-0.09 0.22-0.14 1.02-0.62 2.04-1.26 3.16-1.7 0.88-0.33 1.78-0.86 2.56-0.31-0.54 1.21-1.19 2.37-1.88 3.52-0.1 1.65 0.13-1.34-0.01 0.16l-0.74 1.12z" fill="#e6c073" class="color000 svgShape"></path><path fill="url(#d)" d="m1035.5 284.56c0.5 0.42 1 0.8 1.5 1.25 0.7 0.37 1.2 0.77 1.6 1.18 0.4 0.42 0.8 0.85 1 1.29 0.2 0.43 0.3 0.87 0.3 1.31s0 0.88-0.2 1.31c-0.2 0.85-0.8 1.65-1.6 2.34-0.8 0.7-1.8 1.29-2.9 1.69-2.4 1.1-4.8 2.05-7.3 2.88s-5 1.55-7.5 2.18c-5.1 1.27-10.3 2.21-15.4 3.1-8.5 1.33-16.97 2.86-25.46 4.22-4.24 0.67-8.49 1.31-12.75 1.84s-8.52 0.97-12.81 1.25c-6.88 0.28-13.77 0.97-20.65 1.44-3.45 0.23-6.87 0.42-10.32 0.47-3.44 0.04-6.9-0.05-10.34-0.35-3.28-0.53-6.61-1.2-9.91-2.06-3.29-0.86-6.56-1.92-9.68-3.25-1.56-0.66-3.09-1.41-4.57-2.22s-2.91-1.69-4.28-2.65c-1.37-0.97-2.66-2.02-3.9-3.16s-2.42-2.38-3.5-3.72c0.22-0.57 0.56-1 1-1.34 0.43-0.35 0.96-0.63 1.53-0.85 1.13-0.43 2.45-0.69 3.65-1.18 0.19-0.07 0.38-0.13 0.57-0.19 0.08 0.34 0.14 0.7 0.28 1.03 0.73 0.71 1.52 1.33 2.37 1.84 0.86 0.52 1.79 0.92 2.78 1.22 1.31 0.42 2.63 0.75 3.97 1s2.69 0.42 4.06 0.5c3.27 0.32 6.53 0.82 9.82 0.78 3.64 0.1 7.29 0.17 10.93 0.16 3.73 0.03 7.46 0.07 11.19 0.16 3.47 0.08 6.94 0.16 10.41 0.34 4.03 0.21 8.06 0.38 12.09 0.56 3.96 0.09 7.92 0.13 11.88 0.25 4.11 0.13 8.22 0.29 12.34 0.47 4.37 0.05 8.74-0.14 13.09-0.47 4.5-0.36 9.01-0.74 13.51-1.12 4.9-0.44 9.8-0.95 14.7-1.57 1.8-0.3 3.6-0.63 5.4-1.06s3.6-0.97 5.3-1.65c1.1-0.53 2.2-1.1 3.2-1.79 1-0.68 2-1.48 2.8-2.4 0.5-0.81 1-1.59 1.3-2.41 0.4-0.81 0.6-1.67 0.5-2.62z" color="#000" display="block"></path><path fill="#ac1c00" d="m945.75 302.9h0.4l-0.31 0.29-8.9 8.78-0.07 0.03h-0.06l-24.12 1.34h-0.54l0.41-0.28 12.47-9.09 0.03-0.03h0.03l20.66-1.04z" color="#000" display="block" class="color00aaac svgShape"></path><path fill="#8c0000" fill-opacity=".882" d="m908.47 324.69c0.64 0.36 1.26 0.76 1.87 1.19 0.67 0.45 1.23 0.98 1.72 1.56s0.9 1.21 1.28 1.91c0.31 0.68 0.48 1.42 0.56 2.15 0.09 0.73 0.11 1.45 0.1 2.19-0.2 1.04-0.4 2.08-0.78 3.06-0.78 1.5-1.88 2.71-3.1 3.85-0.56 0.5-1.19 0.86-1.84 1.21-0.75 0.21-1.53 0.39-2.34 0.35-0.93-0.05-1.86-0.13-2.75-0.31-0.9-0.19-1.77-0.47-2.6-0.91-0.71-0.47-1.31-0.98-1.78-1.59-0.47-0.62-0.81-1.33-0.97-2.19-0.12-0.83-0.21-1.65-0.22-2.47s0.05-1.65 0.28-2.47c0.11-0.29 0.26-0.78 0.66-1.47 0.4-0.68 1.03-1.56 2.06-2.53 0.74-0.59 1.45-1.11 2.22-1.5 0.77-0.38 1.59-0.63 2.56-0.69 0.84-0.07 1.67-0.17 2.5-0.15l0.57-1.19z" color="#000" display="block" class="color008a8c svgShape"></path><g transform="translate(-131.79 -67.38)" fill="#e6c073" class="color000 svgShape"><path d="m1034.6 389.26c1.2-0.05 2.3 0.23 3.4 0.52 1.7 0.43 3.2 1.28 4.7 2.3 1.3 0.91 2.2 2.12 3 3.52 0.7 1.38 0.7 2.86 0.7 4.35 0 2.03-1 3.7-1.9 5.46-0.8 1.5-1.9 2.7-3.1 3.83-1.4 1.21-3.1 1.9-4.8 2.48-2 0.75-4 0.54-6 0.25-2-0.42-4.1-0.71-6.1-1.12-1.9-0.42-3.6-1.25-5.2-2.34-1.6-1.16-2.5-2.72-3.1-4.55-0.4-1.69-0.1-3.29 0.4-4.91 0.8-1.84 1.8-3.5 3-5l-0.4 1.26c-1.7 2-1.5 2.08-1.8 2.65-0.5 1.6-0.9 3.18-0.5 4.86 0.5 1.81 1.4 3.36 3 4.5 1.6 1.08 3.3 1.91 5.2 2.32 2 0.41 4 0.7 6 1.12 2.1 0.29 4 0.48 6-0.28 1.7-0.59 3.4-1.28 4.7-2.5 1.2-1.13 2.4-2.34 3.1-3.84 0.4-0.98 0.6-2.03 0.8-3.07 0-1.48 0-2.95-0.7-4.32-0.7-1.39-1.6-2.59-3-3.49-1.4-0.99-2.9-1.87-4.6-2.27-1.1-0.29-2.2-0.56-3.3-0.51l0.5-1.22z" fill="#e6c073" class="color000 svgShape"></path><path d="m1039.6 393.26c-0.8-0.01-1.7 0.1-2.5 0.17-1.9 0.11-3.3 1-4.8 2.19-2 1.95-2.5 3.39-2.7 3.98-0.5 1.63-0.3 3.29-0.1 4.94 0.4 1.73 1.4 2.86 2.8 3.8 1.7 0.87 3.5 1.1 5.3 1.2 1.4 0.06 2.6-0.33 3.9-0.8l-0.5 1.24c-1.3 0.47-2.5 0.85-3.9 0.78-1.9-0.1-3.7-0.34-5.4-1.23-1.5-0.95-2.5-2.1-2.9-3.85-0.2-1.66-0.4-3.33 0-4.99 0.8-2.4 2.1-4.59 4-6.32 1.5-1.19 2.9-2.06 4.8-2.16 0.9-0.08 1.7-0.18 2.6-0.17l-0.6 1.22z" fill="#e6c073" class="color000 svgShape"></path><path fill="url(#e)" d="m1033.2 390.51c0.3 0.03 0.6 0.09 0.9 0.13v0.06c1.1-0.05 2.2 0.21 3.3 0.5 1 0.23 1.9 0.61 2.7 1.06-0.8-0.01-1.6 0.08-2.4 0.16-1 0.05-1.9 0.28-2.6 0.65-0.8 0.38-1.5 0.91-2.3 1.5-0.9 0.87-1.7 1.85-2.4 2.91-0.6 1.06-1.1 2.21-1.6 3.41-0.2 0.82-0.2 1.66-0.2 2.5 0 0.83 0.1 1.67 0.2 2.5 0.2 0.88 0.6 1.59 1.1 2.22 0.5 0.62 1.1 1.14 1.8 1.62 0.7 0.37 1.5 0.61 2.2 0.78s1.5 0.28 2.3 0.35c-0.8 0.2-1.7 0.27-2.5 0.28-0.8 0-1.7-0.07-2.5-0.19-2-0.42-4.1-0.68-6.1-1.09-0.9-0.21-1.8-0.52-2.7-0.91s-1.7-0.87-2.5-1.41c-0.8-0.57-1.4-1.24-1.9-2-0.5-0.75-0.8-1.59-1.1-2.5-0.2-0.83-0.1-1.64 0-2.43 0.1-0.8 0.3-1.59 0.5-2.38v-0.06c0-0.02 0.1-0.08 0.1-0.1l-0.1 0.16c0.3-0.26 0.5-0.53 0.7-0.78 0.7-0.68 1.3-1.37 2.1-1.94 0.8-0.58 1.7-1.07 2.6-1.5 1.1-0.55 2.2-1.1 3.4-1.59s2.4-0.88 3.6-1.25c1.1-0.33 2.3-0.73 3.4-0.66z" color="#000" display="block"></path></g><path fill-opacity=".882" d="m917.2 302.28c-1.46 0.85-2.93 1.7-4.38 2.56-2.49 1.47-4.95 2.95-7.4 4.47-2.64 1.58-5.38 2.98-8.1 4.41-3.37 1.73-6.74 3.45-10.22 4.97-4.82 2.13-9.72 4.08-14.68 5.87-6.84 2.43-13.77 4.66-20.69 6.82-7.04 2.17-14.16 4.11-21.28 5.96-2.51 0.66-5.21 1.18-7.82 1.91-1.3 0.37-2.55 0.81-3.78 1.31-1.22 0.51-2.39 1.09-3.47 1.82-0.25 0.5-0.28 0.84-0.4 1.25 1.03-0.74 2.17-1.34 3.37-1.85 1.21-0.51 2.51-0.95 3.82-1.31 2.6-0.73 5.29-1.23 7.78-1.88 7.13-1.85 14.24-3.83 21.28-6 6.92-2.16 13.82-4.35 20.65-6.78 4.97-1.79 9.89-3.74 14.72-5.87 3.48-1.52 6.85-3.25 10.22-4.97 2.72-1.43 5.46-2.83 8.1-4.41 2.45-1.52 4.95-3 7.43-4.47 1.57-0.93 3.15-1.85 4.72-2.78l0.41-1.03h-0.28zm28.65 0c-2 0.86-4.01 1.73-6 2.63-3.61 1.68-7.17 3.47-10.81 5.09-4.86 2.17-9.83 4.04-14.72 6.13-6.14 2.7-12.28 5.45-18.47 8.06-6.13 2.64-12.34 5.1-18.56 7.53-6.19 2.55-12.51 4.75-18.91 6.72-5.07 1.61-10.22 2.93-15.4 4.12-4.1 0.95-8.24 1.61-12.41 2.19-3.58 0.47-7.17 0.9-10.78 1-0.86 0.18-1.88 0.06-2.78-0.31-0.45-0.19-0.9-0.42-1.25-0.72-0.34-0.29-0.61-0.65-0.78-1.03-0.09 0.31-0.31 0.71-0.31 0.97-0.03 0.6 0.16 1.06 0.53 1.4 0.36 0.35 0.91 0.58 1.59 0.72 0.69 0.15 1.49 0.19 2.44 0.19 3.62-0.09 7.22-0.53 10.81-1 4.17-0.58 8.34-1.24 12.44-2.19 5.18-1.19 10.33-2.48 15.4-4.09 3.2-0.98 6.38-2.04 9.54-3.16 3.15-1.11 6.28-2.28 9.37-3.56 6.22-2.43 12.43-4.89 18.56-7.53 6.19-2.61 12.33-5.36 18.47-8.06 4.89-2.09 9.86-3.99 14.72-6.16 3.64-1.62 7.21-3.38 10.81-5.06 2.19-0.99 4.43-1.92 6.6-2.94l0.43-0.94h-0.53z" color="#000" display="block" fill="#e6c073" class="color000 svgShape"></path><path fill="#fffb00" fill-opacity=".882" d="m814.98 343.69c0-0.02-0.01-0.05 0-0.06-0.01 0-0.02 0.02-0.03 0.03 0 0.01 0.02 0.01 0.03 0.03z" color="#000" display="block" class="color0ff svgShape"></path><path fill="#ac1c00" d="m888.36 299.3-4.28 2.69-2.06-1.34 6.34-1.35z" color="#000" display="block" class="color00aaac svgShape"></path><path d="m876.82 294.79c8.65 11.01 22.91 15.26 36.17 17.43 13.78 1.2 27.57-0.99 41.33-1.55 17.16-1.13 34.04-4.65 50.98-7.31 10.3-1.79 20.7-3.78 30.2-8.17 4.5-1.62 7.1-6.12 1.9-9.11-10.7-9.55-25-14.18-39.14-14.57-17.77-0.93-35.7 0.2-53.19 3.47-10.72 2.72-21.54 5.01-32.29 7.61-9.94 2.59-19.69 5.94-29.43 9.2-2.67 1.1-6.1 0.93-6.52 4.12 0.87-6.44 10.73-5.3 15.49-8.22 9.6-3.03 19.14-6.29 29.04-8.18 9.21-2.32 18.52-4.24 27.75-6.46 20.04-3 40.59-4.46 60.69-1.52 11.2 1.89 22.1 7.15 30.1 15.35 3.9 5.61-4.5 9.72-8.8 11.28-18.7 6.48-38.48 8.07-57.79 11.58-16.83 2.54-33.88 3.09-50.85 4.08-12.91 0.46-25.92-3.09-37.08-9.52-2.46-2.33-9.87-6.07-8.56-9.51z" fill="#e6c073" class="color000 svgShape"></path><path fill="#fffeb8" d="m945.92 302.3h-28.38l-0.4 1.03c-1.58 0.93-3.15 1.85-4.72 2.79-2.49 1.46-4.99 2.94-7.44 4.46-2.64 1.58-5.37 2.98-8.09 4.41-3.38 1.73-6.74 3.46-10.22 4.97-4.83 2.13-9.76 4.08-14.72 5.87-6.84 2.43-13.73 4.63-20.66 6.79-7.04 2.17-14.15 4.14-21.28 6-2.48 0.64-5.17 1.14-7.78 1.87-1.3 0.37-2.6 0.8-3.81 1.31-1.2 0.51-2.34 1.11-3.38 1.85 0 0.02 0.01 0.04 0 0.06 0.18 0.39 0.45 0.74 0.79 1.03 0.35 0.3 0.79 0.53 1.25 0.72 0.9 0.37 1.92 0.49 2.78 0.31 3.61-0.1 7.2-0.53 10.78-1 4.16-0.58 8.31-1.24 12.4-2.19 5.19-1.19 10.34-2.51 15.41-4.12 6.4-1.96 12.72-4.17 18.91-6.72 6.22-2.42 12.42-4.89 18.56-7.53 6.19-2.61 12.32-5.36 18.47-8.06 4.89-2.09 9.86-3.96 14.72-6.13 3.63-1.62 7.2-3.41 10.81-5.09 1.99-0.9 4-1.77 6-2.63z" color="#000" display="block" class="colorfff svgShape"></path><path fill="url(#f)" d="m945.92 302.3h-28.38l-0.4 1.03c-1.58 0.93-3.15 1.85-4.72 2.79-2.49 1.46-4.99 2.94-7.44 4.46-2.64 1.58-5.37 2.98-8.09 4.41-3.38 1.73-6.74 3.46-10.22 4.97-4.83 2.13-9.76 4.08-14.72 5.87-6.84 2.43-13.73 4.63-20.66 6.79-7.04 2.17-14.15 4.14-21.28 6-2.48 0.64-5.17 1.14-7.78 1.87-1.3 0.37-2.6 0.8-3.81 1.31-1.2 0.51-2.34 1.11-3.38 1.85 0 0.02 0.01 0.04 0 0.06 0.18 0.39 0.45 0.74 0.79 1.03 0.35 0.3 0.79 0.53 1.25 0.72 0.9 0.37 1.92 0.49 2.78 0.31 3.61-0.1 7.2-0.53 10.78-1 4.16-0.58 8.31-1.24 12.4-2.19 5.19-1.19 10.34-2.51 15.41-4.12 6.4-1.96 12.72-4.17 18.91-6.72 6.22-2.42 12.42-4.89 18.56-7.53 6.19-2.61 12.32-5.36 18.47-8.06 4.89-2.09 9.86-3.96 14.72-6.13 3.63-1.62 7.2-3.41 10.81-5.09 1.99-0.9 4-1.77 6-2.63z" color="#000" display="block"></path><path d="m1019.9 274.25c-0.1 1.21-0.9 1.95-1.8 2.69-1.3 0.98-2.9 1.36-4.5 1.75-2.2 0.58-4.4 1-6.7 1.4-3.1 0.55-2.7 1.45-2.9 1.83 0.1 2.02 1.1 3.3 2.7 4.44 1.7 1.03 3.7 1.29 5.7 1.29 2.1-0.14 4.1-0.81 6.1-1.48 1.8-0.59 3.6-1.4 5.2-2.31 1.6-0.79 2.9-1.91 3.9-3.31-0.2 0.47-0.3 0.47 0.2-1.01l0.8-1.1c-0.4 1.18-0.7 2.34-1.4 3.38-1.1 1.39-2.4 2.49-3.9 3.29-1.7 0.9-3.5 1.71-5.3 2.3-2 0.67-4 1.33-6.1 1.47-2.1-0.02-4.1-0.29-5.9-1.33-1.6-1.15-2.6-2.45-2.7-4.51 0-2.72 1.7-3.8 4.1-4.18 2.3-0.4 4.5-0.82 6.8-1.41 1.5-0.38 3.1-0.76 4.4-1.76 1.6-1.48 0.3 0.31 0.6-0.32l0.7-1.12z" fill="#e6c073" class="color000 svgShape"></path><path fill="url(#g)" d="m1019.6 274.94c-0.1 0.29-0.2 0.63-0.4 0.88-0.3 0.43-0.7 0.78-1.1 1.15-0.7 0.49-1.4 0.83-2.2 1.1-0.7 0.26-1.5 0.46-2.3 0.65-2.2 0.59-4.5 1.01-6.8 1.41-1.5 0.27-2.2 0.63-2.5 0.97-0.4 0.34-0.3 0.68-0.4 0.87 0.1 1.01 0.3 1.82 0.8 2.53 0.5 0.72 1.1 1.34 1.9 1.91 0.9 0.52 1.8 0.84 2.8 1.03 0.9 0.2 1.9 0.25 2.9 0.25 1.1-0.07 2.1-0.26 3.1-0.53s2-0.6 3-0.94c1.8-0.59 3.6-1.4 5.3-2.31 0.8-0.4 1.5-0.88 2.1-1.44 0.6-0.55 1.2-1.17 1.7-1.87-0.2 0.47-0.2 0.45 0.3-1.03l0.6-0.91c-0.1-0.03-0.1-0.07-0.2-0.09-2.7-1.44-5.6-2.64-8.6-3.63z" color="#000" display="block"></path><path fill="#a03232" d="m980.18 352.71c0 1.8723-1.5178 3.3902-3.3902 3.3902s-3.3902-1.5178-3.3902-3.3902 1.5178-3.3902 3.3902-3.3902c1.8723 0 3.3902 1.5178 3.3902 3.3902z" color="#000" display="block" transform="matrix(.75 0 0 .875 173 25.443)" class="color136264 svgShape"></path><path fill="#ee0000" d="m1056.2 370.09c-0.1-0.09-0.1-0.27-0.1-0.31-0.1-0.1-0.3 0.05-0.4 0.53 0.2-0.13 0.3-0.12 0.5-0.22z" color="#000" display="block" class="color0e0 svgShape"></path><path d="m959.61 271.71c6.06-3.18 11.86-6.93 17.03-11.41 4.91-4.72 9.57-9.7 13.86-14.98 2.2-2.82 4.27-5.85 7.18-7.99 2.62-1.03 2.3 2.69 1.21 3.97-2.26 4.85-6.13 8.68-9.48 12.76-4.59 5.37-8.92 10.99-12.76 16.9 0.53-2.02 2.15-3.56 3.19-5.35 4.71-6.88 10.35-13.03 15.6-19.49 1.31-1.81 2.95-3.57 3.49-5.78 0.52-2.69-2.48-1.96-3.36-0.38-3.77 3.8-6.54 8.46-10.34 12.24-4.53 4.93-9.02 10.01-14.65 13.73-3.65 2.59-7.46 4.97-11.44 7.03 0.16-0.42 0.32-0.84 0.47-1.25z" fill="#e6c073" class="color000 svgShape"></path><path fill="#fffeb8" d="m977.13 269.99c0.29-0.72 0.61-1.44 1.07-2.09 0.6-0.86 1.25-1.7 1.78-2.6 2.35-3.44 4.93-6.67 7.59-9.87 2.66-3.21 5.38-6.37 8-9.6 0.66-0.9 1.42-1.8 2.06-2.75 0.64-0.94 1.17-1.92 1.44-3.03 0.13-0.67 0.03-1.15-0.19-1.43-0.22-0.29-0.57-0.4-0.97-0.38-0.39 0.02-0.82 0.19-1.21 0.44-0.4 0.25-0.75 0.6-0.97 1-1.89 1.9-3.52 4.01-5.16 6.12s-3.29 4.21-5.19 6.1c-2.26 2.46-4.51 4.96-6.9 7.31-1.2 1.18-2.44 2.33-3.72 3.41-1.29 1.07-2.63 2.1-4.03 3.03-3.29 2.33-6.74 4.4-10.28 6.31l16.68-1.97z" color="#000" display="block" class="colorfff svgShape"></path><path fill="url(#h)" d="m977.13 269.99c0.29-0.72 0.61-1.44 1.07-2.09 0.6-0.86 1.25-1.7 1.78-2.6 2.35-3.44 4.93-6.67 7.59-9.87 2.66-3.21 5.38-6.37 8-9.6 0.66-0.9 1.42-1.8 2.06-2.75 0.64-0.94 1.17-1.92 1.44-3.03 0.13-0.67 0.03-1.15-0.19-1.43-0.22-0.29-0.57-0.4-0.97-0.38-0.39 0.02-0.82 0.19-1.21 0.44-0.4 0.25-0.75 0.6-0.97 1-1.89 1.9-3.52 4.01-5.16 6.12s-3.29 4.21-5.19 6.1c-2.26 2.46-4.51 4.96-6.9 7.31-1.2 1.18-2.44 2.33-3.72 3.41-1.29 1.07-2.63 2.1-4.03 3.03-3.29 2.33-6.74 4.4-10.28 6.31l16.68-1.97z" color="#000" display="block"></path><g transform="rotate(2.524 856.508 295.067)" fill="#e6c073" class="color000 svgShape"><path d="m882.05 297.62c-7.52 3.27-15.05 6.54-22.32 10.33-0.54 0.58-2.39 1.75-2.33 0.34 1.12-0.9 2.61-1.06 3.88-1.67 4.55-2 9.27-3.57 13.96-5.2 4.64-1.58 9.3-3.09 13.93-4.69-0.33 1.49-2.02 1.82-3.27 2.18-9.64 3.24-19.36 6.32-28.7 10.39-0.46-1.67 1.78-1.93 2.81-2.56 6.81-3.29 13.62-6.58 20.58-9.51 0.69-0.34 2.6-1.24 1.46 0.39z" fill="#e6c073" class="color000 svgShape"></path><path fill="#fffeb8" d="m865.66 305c3.03-1.14 6.05-2.34 9.12-3.4 4.81-1.64 9.66-3.21 14.47-4.87h-7.19c0.07 0.02 0.19 0 0.2 0.06 0.03 0.15-0.06 0.4-0.36 0.82-3.93 1.71-7.86 3.42-11.77 5.2-1.51 0.69-2.97 1.48-4.47 2.19z" color="#000" display="block" class="colorfff svgShape"></path><path fill="url(#i)" d="m865.66 305c3.03-1.14 6.05-2.34 9.12-3.4 4.81-1.64 9.66-3.21 14.47-4.87h-7.19c0.07 0.02 0.19 0 0.2 0.06 0.03 0.15-0.06 0.4-0.36 0.82-3.93 1.71-7.86 3.42-11.77 5.2-1.51 0.69-2.97 1.48-4.47 2.19z" color="#000" display="block"></path></g></g></g></g></svg></g></svg>