<svg id="SvgjsSvg1001" width="288" height="288" xmlns="http://www.w3.org/2000/svg" version="1.1" xmlns:xlink="http://www.w3.org/1999/xlink" xmlns:svgjs="http://svgjs.com/svgjs"><defs id="SvgjsDefs1002"></defs><g id="SvgjsG1008" transform="matrix(1,0,0,1,0,0)"><svg xmlns="http://www.w3.org/2000/svg" version="1.0" viewBox="0 0 1015 406.1" width="288" height="288"><defs><linearGradient id="a" x1="353.48" x2="372.08" y1="325.17" y2="328.45" gradientTransform="matrix(1.5073 0 0 1.9946 -104.18 -208.93)" gradientUnits="userSpaceOnUse"><stop offset="0" stop-color="#000000" class="stopColor000000 svgShape"></stop><stop offset="1" stop-opacity="0" stop-color="#000000" class="stopColor000000 svgShape"></stop></linearGradient></defs><g transform="translate(-26.257 -341.87) scale(1.4567)" fill="#2d4059" class="color000 svgShape"><path fill="#ffd460" fill-rule="evenodd" stroke="#ea5455" stroke-width="3.875" d="m197.7 342.35l3.07-15.32h-10.73l-7.66 10.73 15.32 4.59z" class="colore4e4ff svgShape colorStroke000 svgStroke"></path><path fill="#f07b3f" fill-rule="evenodd" stroke="#ea5455" stroke-opacity=".276" stroke-width="1.734" d="m373.93 452.69s-12.26 6.12-9.2-1.54c3.07-7.66 12.26-9.19 1.53-7.66-10.72 1.53-1.53 9.2-10.72 1.53-9.2-7.66 7.66-12.26 7.66-12.26l21.45-1.53-10.72 21.46z" class="color7171af svgShape colorStroke000 svgStroke"></path><path fill="#ffd460" fill-rule="evenodd" stroke="#ea5455" stroke-width="3.875" d="M372.39 449.62c3.07 16.86 18.39 15.32 18.39 15.32s10.73 1.54 24.52 0c13.79-1.53 21.45 1.54 27.58-3.06s7.67-3.07 10.73-9.19c3.06-6.13 4.6-10.73 3.06-15.33-1.53-4.6-1.53-10.73-7.66-13.79s-13.79-3.06-13.79-3.06l-50.57 4.59s-6.13-1.53-9.19 7.66c-3.07 9.2-3.07 16.86-3.07 16.86zM141 392.92c13.8 7.66 81.22 30.65 87.35 30.65s39.84 4.6 47.5 4.6c7.67 0 85.82-3.07 124.13-6.13 38.31-3.07 84.28-9.2 110.33-10.73s117.99-9.19 147.11-13.79c29.11-4.6 50.56-24.52 50.56-24.52s6.13-4.6 4.6-10.72c-1.53-6.13-27.58-18.39-27.58-18.39s-4.6-6.13-22.99-10.73-22.98-6.13-36.77-7.66c-13.8-1.53-95.01 4.6-127.19 7.66s-199.21 18.39-199.21 18.39-30.65 3.06-58.23 0c-27.58-3.07-29.12-3.07-47.5-12.26-18.39-9.19-96.545-84.28-96.545-84.28l-19.921 4.6 64.356 114.92-7.66 1.54s1.53 7.66 7.66 16.85z" class="colore4e4ff svgShape colorStroke000 svgStroke"></path><path fill-opacity=".276" fill-rule="evenodd" d="m373.93 413.25s88.87-21.46 113.39-19.92c24.52 1.53 6.13 12.25 6.13 12.25s-15.32 7.67-32.18 6.13c-19.92 7.67-87.34 1.54-87.34 1.54z" fill="#2d4059" class="color000 svgShape"></path><path fill="#ffd460" fill-rule="evenodd" stroke="#ea5455" stroke-width="3.875" d="M335.62 420.51c6.13-4.6 101.13-18.39 107.26-18.39s16.86 3.06 10.73 7.66-332.53 101.14-332.53 101.14-24.515 3.06-29.112-4.6-26.05-26.05-26.05-26.05l18.388-1.53 21.454 16.85 229.86-75.08zM494.98 331.63l22.99-64.36-22.99-30.65h-15.32l12.26 30.65-55.17 70.49 58.23-6.13zM173.18 389.86l-131.78 32.18-16.857-1.53s-9.194-3.07-1.532-6.13c7.662-3.07 105.74-27.59 105.74-27.59s16.85-6.13 27.58-3.06c10.72 3.06 16.85 6.13 16.85 6.13z" class="colore4e4ff svgShape colorStroke000 svgStroke"></path><path fill="none" stroke="#ea5455" stroke-dasharray="8.875 8.875" stroke-width="8.875" d="m219.16 397.52s332.52-26.05 372.36-29.12" class="colorStroke000 svgStroke"></path><path fill-opacity=".222" fill-rule="evenodd" stroke="#ea5455" stroke-width="2.625" d="m635.96 351.55l1.54 9.19 16.85-1.53s3.07 1.53 15.33-4.6c12.25-6.13 13.79-10.72 13.79-10.72l-9.2-6.13s1.53 6.13-7.66 7.66-30.65 6.13-30.65 6.13z" fill="#2d4059" class="color000 svgShape colorStroke000 svgStroke"></path><path fill="url(#a)" fill-rule="evenodd" d="m436.75 459s-5.23-4.33-6.13-12.44c-3.06-9.2-1.44-10.19 3.07-16.86 6.13-6.13 6.13-7.66 10.73-4.6 4.59 3.07 8.29 4.6 7.66 12.26 1.53 7.66 2.07 12.8-4.06 15.87-3.42 5.23-11.27 5.77-11.27 5.77z"></path><path fill-opacity=".276" fill-rule="evenodd" d="M105.76 497.12l7.66 7.67 199.21-70.49s-182.35 56.69-191.55 59.76c-9.19 3.06-15.32 3.06-15.32 3.06zM493.45 268.8l19.92-1.53s-3.06-3.07-18.39 13.79c-15.32 16.86-33.71 35.24-33.71 35.24l32.18-47.5zM145.6 371.47l82.75-16.86s-35.24 9.2-49.04 16.86c-13.79 7.66-33.71 0-33.71 0zM196.17 353.08s1.53 3.07-18.39-12.26c-19.92-15.32-76.62-73.55-76.62-73.55l75.09 84.28s3.06 7.66 10.73 6.13c7.66-1.53 9.19-4.6 9.19-4.6zM376.99 441.96c0 9.19 0 12.26 3.07 15.32 3.06 3.07 42.9-7.66 42.9-7.66s-15.32-1.53-29.11-4.6c-13.79-3.06-16.86-3.06-16.86-3.06z" fill="#2d4059" class="color000 svgShape"></path></g></svg></g></svg>